<?xml version="1.0" encoding="UTF-8"?> <svg xmlns="http://www.w3.org/2000/svg" width="167" height="45"><path fill="#FFF" d="M65.223 37.356h-.028l-.058-.258h-.029l-.057-.173h-.029v-.058h-.028v-.058h-.029l-.029-.114-.057-.029-.029-.114h-.028l-.029-.087c-.019-.009-.038-.02-.057-.027v-.058a2.968 2.968 0 0 0-.058-.028v-.058c-.019-.01-.038-.02-.057-.028v-.058a.768.768 0 0 0-.058-.028l-.029-.114h-.028l-.029-.087-.057-.028v-.059l-.058-.027v-.059l-.057-.028v-.058c-.02-.01-.038-.02-.057-.028a6.383 6.383 0 0 1-.029-.114h-.029l-.029-.086-.058-.029v-.058l-.057-.028v-.059c-.02-.008-.039-.018-.058-.027v-.058c-.019-.009-.038-.02-.058-.028l-.028-.115h-.028l-.029-.086-.057-.029v-.057l-.057-.029v-.057a1.567 1.567 0 0 0-.058-.029v-.058l-.057-.028-.029-.115h-.028l-.029-.086-.057-.028v-.058l-.058-.029-.028-.085h-.027v-.058l-.057-.029a3.794 3.794 0 0 1-.029-.114l-.057-.029v-.058a.98.98 0 0 0-.058-.027v-.061c-.02-.009-.038-.02-.058-.028v-.058l-.057-.029a4.684 4.684 0 0 0-.029-.113h-.028l-.029-.086a1.567 1.567 0 0 0-.058-.029v-.059l-.057-.027a4.371 4.371 0 0 1-.029-.086h-.028v-.059l-.058-.028c-.008-.038-.018-.076-.028-.114h-.028l-.029-.086-.058-.029v-.057a.765.765 0 0 0-.057-.029l-.029-.086h-.029v-.058l-.057-.028-.029-.115h-.028l-.029-.086-.057-.029v-.057a1.567 1.567 0 0 0-.058-.029l-.028-.086h-.029v-.057l-.057-.029-.029-.115h-.029a4.371 4.371 0 0 0-.029-.086l-.057-.029v-.057l-.057-.029a1.73 1.73 0 0 1-.029-.086h-.028v-.057l-.058-.029-.028-.115h-.029a1.73 1.73 0 0 1-.029-.086c-.019-.01-.038-.02-.057-.028v-.058l-.057-.029a8.897 8.897 0 0 0-.029-.086h-.029v-.057l-.057-.029-.029-.115-.057-.028v-.058a.961.961 0 0 0-.057-.027V31.1l-.058-.028v-.058l-.057-.027-.029-.115h-.028a4.371 4.371 0 0 1-.029-.086l-.057-.029v-.058l-.057-.028a4.371 4.371 0 0 1-.029-.086h-.029v-.059l-.057-.027-.029-.115h-.028a4.371 4.371 0 0 1-.029-.086 1.567 1.567 0 0 0-.058-.029v-.058l-.057-.028a2.167 2.167 0 0 1-.029-.086h-.029v-.058l-.057-.028-.029-.115h-.028a2.167 2.167 0 0 1-.029-.086l-.058-.029v-.057l-.057-.029a8.897 8.897 0 0 0-.029-.086h-.029v-.059c-.019-.01-.038-.021-.057-.029l-.029-.115h-.028l-.029-.086-.057-.029v-.057l-.058-.029a2.868 2.868 0 0 1-.028-.086h-.029v-.057l-.057-.029-.029-.115h-.029l-.028-.086a2.968 2.968 0 0 0-.058-.028v-.058a.61.61 0 0 0-.058-.027 2.216 2.216 0 0 0-.029-.087h-.026v-.058l-.058-.029-.028-.114h-.028l-.029-.087-.057-.027v-.059c-.019-.01-.038-.02-.057-.027a2.216 2.216 0 0 0-.029-.087h-.029l-.028-.115h-.029l-.029-.086c-.019-.009-.038-.02-.057-.028v-.059l-.058-.027-.028-.087h-.029v-.058l-.057-.027-.029-.115h-.029a1.73 1.73 0 0 0-.029-.086.765.765 0 0 0-.057-.029v-.057c-.019-.012-.038-.02-.057-.029l-.029-.086h-.029v-.058c-.019-.011-.038-.019-.057-.028l-.029-.115h-.029l-.028-.086a1.567 1.567 0 0 0-.058-.029v-.058l-.057-.028v-.057l-.058-.029-.028-.086h-.029l-.029-.114h-.028l-.029-.087-.057-.029v-.057l-.057-.029-.029-.086h-.029v-.058l-.057-.028-.029-.115h-.028l-.029-.086-.057-.029v-.057l-.058-.029-.028-.086h-.029v-.057l-.057-.029-.029-.115a1.036 1.036 0 0 1-.058-.028v-.057c-.019-.011-.038-.019-.057-.028v-.059l-.058-.028v-.058l-.057-.028a3.794 3.794 0 0 0-.029-.114h-.028a4.371 4.371 0 0 1-.029-.086c-.019-.01-.039-.021-.058-.029v-.058c-.019-.009-.038-.02-.057-.028l-.029-.086h-.028v-.059c-.019-.009-.039-.02-.058-.027l-.029-.115h-.028a4.371 4.371 0 0 1-.029-.086l-.057-.029v-.058c-.02-.009-.039-.02-.058-.028l-.029-.086h-.028v-.058l-.058-.028a4.806 4.806 0 0 1-.028-.115h-.029l-.029-.086-.057-.029v-.057l-.057-.029-.029-.086h-.029v-.057a1.026 1.026 0 0 0-.057-.029l-.029-.115h-.029a4.371 4.371 0 0 0-.029-.086l-.057-.029v-.061l-.057-.029a2.167 2.167 0 0 1-.029-.086h-.029v-.057l-.057-.029-.029-.115-.058-.027v-.059l-.057-.027v-.058a.627.627 0 0 0-.058-.029v-.057l-.058-.029-.028-.115-.058-.029v-.057l-.057-.029-.143-.259.602-.574.086-.115c.328-.238.578-.55.86-.833l.946-.89.516-.545c.328-.238.578-.55.86-.833l.917-.861.516-.546h.057l.258-.287.573-.545.258-.288h.057l.344-.373c.238-.238.504-.456.688-.747l.029-.115h.029l.057-.172h.029l.057-.258h.029v-.115h.028c.03-.093.064-.706.029-.833h-.029v-.172h-.028v-.086h-.029l-.029-.202h-.028l-.029-.114h-.023a7.337 7.337 0 0 0-.029-.144l-.057-.029-.029-.115-.057-.029v-.058l-.057-.029v-.057l-.144-.115v-.058h-.028a8.583 8.583 0 0 1-.086-.115h-.057a8.055 8.055 0 0 1-.115-.144h-.057a1.567 1.567 0 0 1-.029-.058 2.167 2.167 0 0 1-.086-.029v-.025h-.058l-.028-.057a25.987 25.987 0 0 0-.258-.086v-.029h-.057v-.028h-.086c-.347-.139-.842-.185-1.232-.058l-.287.058c-.542.237-.82.592-1.204.977l-.803.746-1.118 1.148h-.058l-.373.402-.832.804-.344.374h-.057l-1.519 1.55a2.167 2.167 0 0 0-.086.029l-.831.861-.487.46-.201.229h-.057l-1.003 1.034-.401.373-.144.172h-.057l-1.462 1.493h-.028l-.029.058h-.059l-.745.776h-.057V4.048l-.172-.603h-.028l-.029-.115h-.029l-.028-.115-.058-.028-.029-.115-.086-.058v-.056l-.086-.058v-.057a8.055 8.055 0 0 0-.144-.115l-.143-.172h-.057a8.583 8.583 0 0 1-.086-.115h-.057a1.036 1.036 0 0 1-.028-.058l-.115-.029-.029-.058-.114-.028V2.24l-.115-.029v-.029h-.086v-.029h-.058v-.028h-.086v-.029h-.115v-.029h-.114v-.028h-.144V2.01h-.344c-.208-.04-.583.042-.774.115h-.086c-.716.307-1.221.825-1.491 1.579v.115c-.165.486-.086 1.457-.086 2.096v31.9c0 .264-.001.498.057.689v.144h.029v.087h.029v.086h.028v.086h.029v.057h.029l.086.259.058.028v.057h.028l.029.087a.636.636 0 0 0 .058.03v.056l.086.058v.058l.086.058.2.229h.058l.086.115h.057l.028.057h.057l.029.058c.34.216 1.136.445 1.663.287l.258-.029c.52-.184.94-.448 1.232-.861l.086-.057v-.058l.057-.028.029-.086h.029l.028-.115h.029v-.058h.029l.057-.172h.029v-.087h.029v-.086h.028v-.086h.029v-.144h.029v-.144h.029v-9.102c.036-.029.034-.068.057-.087h.057l.029-.058.143-.115c.02-.027.039-.057.058-.085h.058l.258-.287h.057l.229-.259h.057l.229-.258h.057l.258-.287h.058l.229-.259h.057l.086-.114.115-.087.029-.058h.057l.258-.287h.057l.229-.258h.057l.229-.259h.058l.258-.287c.083-.061.114-.044.172-.144h.057c.019.08.044.137.086.201l.058.029.029.114.057.028.029.115.057.029.029.086h.029l.028.114c.02.01.038.02.058.028l.028.115.058.029.029.086h.028l.029.114c.02.011.038.02.058.028v.059l.057.028.029.114.058.029v.058h.028v.058l.058.028.028.086h.029l.029.114.057.029.029.115.057.029.029.086h.028l.029.114.057.028v.058l.058.028.028.115c.02.01.039.02.058.028v.058h.028v.057c.02.011.039.021.058.029l.029.087h.029l.029.114.057.029v.057h.029v.058c.019.009.038.02.057.028l.029.086h.028l.029.115.058.029.028.086h.029l.029.114a.5.5 0 0 0 .057.028v.058h.029v.058l.057.029.029.086h.029l.028.114a.427.427 0 0 0 .057.028v.059h.029v.057l.058.029c.009.028.02.057.028.086h.029l.028.114.058.029.028.114.058.029.028.087h.029l.029.114.057.028.029.087h.028l.029.114.057.028.029.115.057.029.029.086h.028l.029.114c.019.011.039.019.057.028l.029.115.057.029v.057l.058.029.028.115.058.027.028.087h.029l.029.114.057.029v.057h.029v.058l.058.029.029.086h.028l.029.114.057.029.029.115.058.028v.058c.019.009.038.02.057.028l.029.114.057.029.029.086h.028l.029.115.057.029v.057h.029v.057l.058.029.028.086h.029l.028.115.058.029v.057h.029v.057c.019.011.038.02.057.029l.029.087h.029l.029.114.057.029.028.086h.029l.029.115.057.028v.058h.029v.058l.057.028.029.086h.029l.028.115.058.027v.059h.029v.057l.057.029.029.086h.029l.028.114c.019.011.039.019.058.029l.028.114.058.029v.058l.057.028.029.115c.019.009.038.02.057.028l.029.087h.028l.029.114c.02.009.039.02.058.028v.059h.029v.057l.057.028.028.087h.029l.029.114.058.028.028.115c.019.01.038.02.058.028v.058l.057.029.029.114.057.028.029.086h.029l.028.115.058.029v.057h.028v.059l.058.027.028.086h.029l.028.115.058.029.028.114c.019.011.038.02.058.03v.057c.019.009.038.02.057.028l.029.114.057.029.029.086h.028l.029.115.057.028v.058h.029v.058l.058.028.028.086h.029l.029.115.058.029.028.113c.019.011.038.02.058.029l.028.086h.029l.029.115.057.029v.057a.75.75 0 0 0 .057.028l.029.115.057.028v.059h.029v.057l.058.029.028.086h.029l.029.114a.75.75 0 0 0 .057.028v.059h.029v.057l.057.029.029.086h.029l.028.114.057.029v.058h.029v.057c.02.01.038.02.058.028l.029.087h.029l.028.115.058.027.028.087h.029l.029.114.057.029.029.115h.028l.029.086.057.029.029.114c.039.028.077.058.115.087v.057l.258.229.115.144h.057l.058.086h.057l.057.086.115.029.029.058c.038.009.076.02.115.028v.029c.057.02.114.037.172.057v.029h.086v.029h.086v.027h.086v.029h.086v.028h.115v.028h.144c.108.033.523.104.688.059v-.029l.373-.029v-.028c.125-.028.248-.058.373-.085v-.03l.172-.057v-.028h.057v-.029h.058v-.028l.115-.029.029-.058h.057v-.028l.086-.028.029-.058h.057l.115-.144h.058l.028-.057c.048-.039.096-.078.144-.115v-.059l.144-.113.028-.087.058-.029c.273-.41.61-1.313.401-2.009a1.065 1.065 0 0 1-.042-.235zm47.702-15.247c0-.213.02-.494-.027-.661v-.861h-.029v-.402h-.029v-.315l-.229-1.407-.345-1.149h-.028v-.058h-.029v-.085h-.027a7.337 7.337 0 0 1-.029-.144h-.029v-.057h-.027v-.086h-.029a4.836 4.836 0 0 1-.029-.115h-.027v-.057h-.029v-.086h-.029c-.019-.057-.037-.115-.057-.172h-.028v-.058h-.029v-.058h-.028l-.057-.172-.058-.029v-.057h-.028v-.058h-.029v-.058h-.029v-.057a.758.758 0 0 0-.057-.029l-.029-.115-.057-.029c-.01-.029-.02-.058-.027-.086h-.029l-.029-.115-.058-.028v-.058l-.085-.057v-.058a1.045 1.045 0 0 1-.058-.029v-.058l-.086-.057v-.058a8.583 8.583 0 0 1-.115-.086v-.057a11.287 11.287 0 0 0-.114-.086v-.057l-.287-.258c-.152-.164-.306-.326-.458-.488h-.058l-.115-.144h-.057l-.115-.144h-.057l-.058-.086-.086-.029-.028-.057h-.058a.768.768 0 0 1-.028-.058h-.057l-.059-.086h-.057l-.029-.058-.114-.028-.028-.058-.086-.028v-.028l-.115-.029c-.01-.02-.02-.038-.027-.057l-.173-.058a1.036 1.036 0 0 1-.028-.058 6.353 6.353 0 0 0-.115-.028v-.029h-.057v-.029l-.172-.058v-.029h-.087v-.029h-.058v-.028l-.113-.029v-.029l-1.377-.459h-.114v-.029h-.114v-.026h-.115v-.029h-.115v-.029h-.143v-.029h-.115v-.029h-.144v-.028h-.143v-.029h-.144v-.029l-.344-.029v-.029l-.345-.029v-.028l-.431-.029v-.028h-.257v-.029h-.259v-.029h-.314v-.028h-.373v-.028h-.487c-.198-.057-.527-.029-.774-.029h-1.461c-.053.046-.191.028-.287.029l-.573.028v.029h-.287v.029h-.286l-1.893.315v.029h-.114v.029h-.118v.029h-.115v.028h-.115v.029l-.229.028v.029h-.086v.029h-.086v.029h-.115v.028h-.086v.029h-.086v.029h-.086v.028h-.086v.029l-.172.029v.029h-.058v.028h-.086v.029h-.058v.028h-.086v.029h-.058v.029h-.085v.029l-.115.029v.028h-.086v.029l-.172.058v.029h-.058v.029h-.056v.029a34.79 34.79 0 0 1-.172.057c-.01.019-.02.038-.027.058l-.174.057-.027.058-.115.028c-.01.019-.02.038-.027.057h-.059l-.028.058h-.058c-.01.019-.02.038-.028.058h-.058l-.028.058h-.058c-.01.019-.02.038-.028.057h-.058l-.057.086h-.058l-.086.115h-.058l-.057.086h-.057c-.039.048-.078.096-.115.144h-.057c-.087.096-.174.191-.259.287h-.058l-.172.201a4.326 4.326 0 0 0-.086.058v.057l-.258.229v.058l-.058.028v.029a4.257 4.257 0 0 1-.086.057v.058c-.028.02-.058.039-.087.058l-.027.086-.058.029v.057c-.019.01-.038.02-.058.028v.058l-.057.028-.029.086h-.027v.058l-.059.029v.058l-.057.028-.029.115-.057.029-.029.114-.057.029v.057h-.029v.058h-.029v.058h-.027v.057h-.028v.057h-.029v.058h-.028v.058h-.029v.058h-.027v.057h-.029v.058H91.4l-.058.172h-.029v.086h-.027l-.029.115h-.028v.086H91.2v.057h-.029c-.01.048-.02.096-.028.144h-.029v.085h-.028v.058h-.029c-.009.058-.019.114-.027.173h-.029v.086h-.028v.086h-.029v.086h-.028v.086h-.029l-.028.201h-.028l-.258 1.264v.229h-.033v.229h-.029v.286h-.027v.373c-.045.156.02.429-.028.603-.072.255-.029.67-.028.977v14.73c0 .653-.063 1.46.113 1.953.279.777.848 1.307 1.605 1.607.076.01.153.019.229.027.473.157 1.154.062 1.548-.113v-.029l.172-.058v-.028l.115-.029.028-.058h.058l.029-.057h.057l.057-.086c.418-.297.701-.71.889-1.235.166-.464.087-1.319.087-1.924V23.345c0-.215-.019-.495.028-.661v-.316l.029-.718h.027v-.287h.029v-.229h.029v-.201c.041-.142.071-.351.113-.488l.029-.288.287-.947h.027l.058-.172h.029v-.058h.028v-.057h.029c.02-.058.037-.115.057-.172l.058-.029v-.057l.058-.029v-.057l.057-.028c.01-.029.02-.058.028-.086.028-.02.058-.039.087-.057v-.058l.172-.144v-.058l.057-.028.172-.201h.059c.057-.067.113-.134.172-.201h.057l.057-.086.086-.029.029-.057h.057l.029-.059h.057l.058-.085.114-.029.029-.058.086-.028v-.029h.057v-.028h.058v-.03h.058v-.029h.057l.029-.058.114-.029v-.028l.172-.058v-.028h.087v-.029h.057v-.029l.115-.029v-.029h.086v-.029h.057v-.028h.086v-.029h.058v-.028l.259-.057v-.029h.085v-.029h.087v-.029h.086v-.028l.2-.029v-.029l.229-.028v-.029h.143v-.029h.115v-.028h.143v-.029h.172v-.029h.173v-.028h.2v-.03l.631-.029v-.028h.975v.028h.373v.029h.229v.029h.2v.028h.172v.029h.173v.029h.144v.028h.113v.029h.115v.029h.115v.028h.086v.029h.114v.029h.086v.028h.086v.029h.087v.029h.085v.029h.058v.029h.086v.028h.058v.029h.085v.029l.115.028v.029h.086v.029l.172.058v.029l.115.029.029.058.172.057v.029l.086.029.028.058.114.028.058.086h.058c.01.019.019.039.027.058h.059l.086.115h.057l.115.144h.057l.086.115.258.229v.058l.144.115v.057l.087.058v.058l.086.058v.057l.057.029v.058h.029v.057l.057.028c.01.039.02.077.028.115l.058.029.086.258h.029l.028.115h.028l.229.689v.115h.029v.115h.029v.115h.028v.144h.028v.144h.029v.144h.028v.172h.028v.202h.028v.201h.029v.258h.028l.029.402v.316h.028v1.09c.04.221 0 .769 0 1.092V37.04c0 .431-.043.945.058 1.293l.027.287c.174.487.418.928.804 1.205.028.039.058.076.087.115h.057l.057.086h.059l.027.059h.058v.027h.058v.029h.057v.028h.058v.028l.172.058v.028l.172.029a2.242 2.242 0 0 0 1.52 0l.172-.029a2.69 2.69 0 0 0 1.462-1.578v-.115h.029v-.115h.028v-.143h.028v-.346c.063-.223.029-.589.029-.861V22.109h-.006zM42.347 13.38h-.029l-.029-.114h-.028v-.086l-.058-.029-.058-.172-.057-.029v-.058l-.086-.057v-.058l-.201-.172-.201-.229h-.057l-.058-.086h-.057l-.029-.058-.172-.057-.029-.058-.688-.229-.946-.029c-.056.049-.214.029-.315.029l-.66.029v.029h-.315v.028h-.258l-1.634.287v.029l-.229.029v.029l-.229.029v.028l-.201.029v.028h-.086v.029h-.114v.029h-.086v.028h-.086v.028h-.086v.029h-.085v.028h-.086v.029l-.172.029v.029h-.057v.028l-.172.029v.029h-.057v.029h-.086v.029h-.057v.028h-.086v.029c-.039.009-.077.02-.115.028v.029h-.086v.029l-.115.029v.029h-.085v.029l-.172.057v.029h-.057v.029h-.058v.029h-.059v.029h-.057v.029h-.058v.028h-.057v.029h-.057v.028h-.058v.029h-.057l-.029.057h-.057v.029h-.058v.029h-.057v.029h-.058l-.029.057-.114.029c-.009.02-.019.038-.029.057h-.057v.029h-.058l-.028.058h-.058l-.028.057H32.6l-.029.058h-.057l-.029.057h-.057l-.029.058h-.058l-.028.058h-.058l-.057.086h-.058l-.058.086h-.057l-.057.086h-.058l-.057.086h-.057l-.115.143h-.057l-.115.144h-.057l-.344.373h-.058l-.028.057a8.583 8.583 0 0 1-.115.086l-.029.086-.315.287v.058l-.172.144v.058l-.115.086v.058l-.086.057v.058l-.086.058v.057l-.086.057v.058l-.086.058v.058l-.057.029v.058l-.058.028a4.371 4.371 0 0 1-.029.086h-.029v.058c-.019.009-.038.02-.057.028v.058h-.029v.057l-.057.029-.029.115-.057.029-.029.115-.057.029v.058h-.029v.058h-.029v.057h-.026v.051h-.029v.058h-.029v.058h-.029v.057h-.029v.058h-.028v.058h-.028v.057h-.029v.057h-.029l-.057.172h-.029v.086h-.028v.058h-.029v.085h-.029v.058h-.028l-.029.144h-.029l-.028.172h-.029v.057h-.029l-.058.288H28.7v.086h-.028v.086h-.029l-.029.23h-.028l-.029.23h-.029l-.172 1.12v.661c-.027.15 0 .557 0 .803v14.443c0 .602-.075 1.527.086 1.981.129.364.309.688.516.977l.201.172.115.144h.058l.057.086h.058l.028.058.086.028v.028h.057l.029.058.114.029v.028l.172.058v.029h.086v.027h.058v.029h.086v.029h.114v.027h.115v.029h.143v.028h.258v.028h.344v-.028h.258v-.028h.144v-.029h.114v-.027h.086v-.029l.172-.029v-.027h.058v-.029h.086V40.2l.115-.028v-.028h.058l.028-.057.115-.03L32.4 40h.057l.058-.086h.057l.086-.115h.057l.029-.058.172-.143v-.058l.114-.087v-.058l.086-.057v-.058l.058-.029.028-.114.058-.029.028-.114h.029l.029-.115h.028l.029-.172h.029v-.057h.028l.029-.23h.028v-.145h.029l.029-.803V25.096c0-.265-.032-.617.029-.833.046-.165-.014-.426.028-.574v-.373h.029v-.287h.029v-.259h.028v-.229c.075-.259.095-.585.172-.833v-.144h.029l.028-.23h.029l.028-.23h.029v-.114h.029v-.086h.028v-.086h.029v-.114h.029l.029-.172h.029v-.057h.028l.029-.173h.029v-.057h.029v-.086h.028V20.1h.029v-.086h.029l.057-.172h.029v-.058h.028v-.058h.029v-.057h.029v-.058h.028v-.058h.029v-.057h.028v-.058h.029v-.057l.057-.029.028-.115.058-.028v-.058l.058-.028v-.058l.057-.029v-.056l.057-.029v-.057l.086-.058v-.058l.086-.058.029-.086.172-.143v-.058l.201-.172.057-.086h.058l.172-.201h.057l.057-.086h.058l.058-.086h.057l.029-.057h.057l.029-.057.086-.029v-.029l.115-.028.028-.058h.058v-.029h.058v-.029h.057v-.028h.058l.029-.058.143-.028v-.029h.058v-.028c.038-.01.076-.02.115-.028v-.029h.086v-.029h.057V17.2h.086v-.029h.058v-.029h.086v-.029h.086v-.028h.086v-.029h.086v-.029l1.089-.23h.258v-.028h.315v-.029l1.233-.028v-.029h.115v-.029h.115v-.029h.086v-.029h.086v-.028h.057v-.028h.086v-.03h.053v-.028h.057l.029-.058.115-.029.029-.058h.057l.058-.086h.057l.172-.201.172-.143v-.057l.086-.058.029-.086c.02-.009.039-.02.058-.028l.028-.115.058-.029.086-.258h.029v-.058h.029v-.086h.028v-.057h.029l.029-.229c.134-.409.083-.931-.058-1.292l-.03-.174zM25.69 28.483v-7.867c0-1.287.016-2.475-.344-3.388v-.086h-.028v-.086h-.028v-.086h-.029v-.086h-.029l-.028-.144h-.029l-.029-.115h-.028v-.057h-.029v-.086h-.029l-.057-.172h-.029v-.058h-.029l-.029-.114-.057-.029a8.668 8.668 0 0 0-.058-.172c-.019-.009-.038-.02-.057-.028l-.029-.115-.057-.028v-.058c-.019-.009-.038-.02-.057-.028v-.06l-.058-.029v-.058l-.057-.028v-.058a1.014 1.014 0 0 1-.057-.029v-.058l-.115-.085a4.371 4.371 0 0 1-.029-.086l-.058-.029v-.058l-.2-.172v-.058l-.172-.144-.201-.229h-.057l-.029-.058h-.029l-.115-.144h-.057l-.115-.144h-.057l-.057-.086h-.058l-.086-.115h-.058l-.029-.058h-.057l-.057-.086h-.058l-.028-.058h-.058l-.028-.057-.086-.029v-.028l-.115-.029c-1.957-1.245-4.568-1.778-7.826-1.723-.066.059-.285.027-.401.029l-.832.057v.028h-.258v.029h-.229v.029h-.201v.029h-.201v.029H12.3v.029h-.172v.028h-.172v.029h-.143v.029h-.144v.029h-.144v.029h-.114v.028H11.3v.029l-.258.028v.029l-.316.058v.028l-.2.029v.029h-.086v.028h-.086v.029l-.373.086v.029h-.057v.028l-.258.058v.029a9.083 9.083 0 0 0-.143.029v.028h-.058v.029h-.086v.029l-.115.029v.029h-.086v.029h-.057v.029a4.836 4.836 0 0 0-.115.029v.028h-.057v.029h-.057v.029h-.058v.029h-.057v.028H8.72v.029h-.058v.029h-.057v.028h-.057v.028H8.49v.029h-.057l-.029.058-.115.029-.028.058-.115.029v.028l-.086.029-.029.057-.114.029-.058.086h-.057l-.029.057-.086.029v.028H7.63l-.057.086h-.057a4.969 4.969 0 0 1-.086.116h-.057l-.086.114h-.058l-.172.201H7l-.258.288-.258.229v.057l-.143.115-.029.086-.143.115-.029.086a.533.533 0 0 1-.057.031v.057l-.086.058-.029.086-.058.029v.057l-.057.029-.029.086h-.029v.058l-.057.029-.029.114-.057.029-.029.115-.057.028v.058h-.028v.058h-.029v.057H5.48v.057h-.028v.058l-.057.028-.029.115h-.029l-.029.115h-.029l-.085.259h-.029l-.029.115h-.029l-.028.143h-.028v.086h-.029v.057h-.029v.086h-.029v.058h-.028v.086h-.029v.086h-.029v.086H4.85v.086h-.029v.086h-.029l-.086.488h-.028v.258h-.029l.029.545h.029v.144h.028v.115h.029v.086h.029v.086h.028l.029.115h.029v.086h.028v.057l.058.029.029.115.058.028v.058l.057.029v.057l.086.058v.057l.201.172.086.115h.057l.058.086h.057l.029.057.086.029v.029l.115.029.028.058.144.029v.029l.115.028v.029l.201.029c.283.096.684.152 1.003.058l.258-.029c.314-.11.583-.28.832-.459l.028-.058a7.71 7.71 0 0 0 .172-.144v-.057l.115-.086v-.058l.057-.028v-.058l.058-.029.028-.086h.029l.029-.115h.028l.029-.115h.029v-.086h.028v-.057h.029v-.086h.026v-.058h.028v-.086h.029l.029-.144h.028v-.058h.029v-.085h.028l.029-.114h.029v-.086h.028l.058-.172h.028v-.058h.029v-.057h.029v-.058h.029v-.057h.029v-.057h.029v-.058h.028v-.057l.058-.029v-.057l.057-.029v-.058l.058-.029v-.058l.057-.028v-.058l.086-.057v-.058l.085-.058v-.057l.115-.086v-.058l.287-.258.115-.144h.057l.086-.115h.058l.058-.086h.057l.029-.057h.057l.029-.058.086-.029v-.029l.115-.029.028-.058h.056v-.028h.058v-.029h.057v-.026h.057v-.028h.057v-.029h.058v-.029h.058v-.029l.172-.057v-.029h.086v-.029h.057v-.028h.086v-.029h.058v-.029l.287-.057v-.029h.086v-.028h.115v-.03h.115v-.029l.258-.028v-.029l.574-.057v-.029h.258v-.028h.401c.223-.063.587-.029.86-.029 1.131 0 2.277.137 3.096.459l.172.029v.029h.086v.028h.058v.029h.086v.029l.114.029v.029h.086v.028l.115.029v.029l.114.028.029.058.172.058.029.058h.058v.029l.086.029.029.057h.057l.057.086h.058l.085.114c.476.342.786.836 1.032 1.407v.086h.029v.086h.029v.115h.028v.115h.029v.144h.029v.144h.028v.23h.029v.316c0 .256.029.596-.029.804l-.028.46h-.029v.143h-.032v.144h-.028v.115h-.029v.086h-.029v.086h-.028v.057h-.029v.086h-.029l-.029.115h-.028v.057l-.058.029-.028.115-.058.029v.057a4.326 4.326 0 0 0-.086.058v.058l-.057.028-.172.201h-.057c-.02.028-.038.058-.058.087l-.114.028-.029.057h-.086v.028a2.38 2.38 0 0 1-.114.029v.029h-.086v.028h-.086v.029h-.086v.028h-.086v.028l-.287.029v.029h-.258c-.346.098-.801.072-1.147.172h-.229v.029h-.229v.028h-.23v.028h-.229v.029l-.717.057v.029h-.229c-.346.1-.801.071-1.146.172h-.229v.028h-.229v.028l-.459.029v.028c-.153.011-.306.02-.458.028-.346.1-.801.072-1.147.172h-.229v.029h-.229v.029c-.153.009-.306.02-.458.028-.314.091-.7.106-1.003.201h-.147v.028l-.258.029v.029h-.115v.028h-.114v.028h-.115v.029h-.115c-.382.123-.764.248-1.146.373v.028l-.114.028v.029h-.087v.028h-.058v.028h-.086v.029l-.172.057v.029h-.057v.028h-.057v.028H7.43v.029h-.057v.028h-.058v.029h-.057v.028H7.2v.029h-.057v.028h-.057l-.029.058-.172.057-.028.059-.115.027-.029.058c-.038.01-.076.02-.114.028l-.029.067h-.058l-.029.057h-.057l-.029.057H6.34l-.029.059h-.057l-.029.057h-.057l-.029.058c-.028.01-.057.02-.086.028l-.057.086h-.057l-.029.057h-.028l-.029.057h-.058l-.114.144h-.057l-.458.487-.172.145v.057l-.172.145v.057l-.114.087v.058c-.029.019-.058.037-.086.057v.059a1.6 1.6 0 0 0-.086.057v.057l-.086.058v.058a.993.993 0 0 1-.057.028v.058l-.058.029v.057l-.057.029v.057l-.057.029-.029.115-.058.027-.057.173-.058.028-.028.115h-.03v.057h-.029l-.057.173h-.029v.087h-.028l-.029.115H3.76v.085h-.029a3.794 3.794 0 0 1-.029.114h-.028v.087h-.028v.058h-.029l-.028.172H3.56v.058h-.029l-.028.172h-.029v.087h-.029v.086h-.028l-.029.201h-.029l-.028.201h-.029l-.029.229h-.028l-.029.286h-.029l-.057.574h-.029v.23h-.029v.287h-.029v.459c-.025.092-.065.441-.028.575h.028v.545h.029v.287h.029v.23h.029v.172h.028v.172h.029v.144h.028v.144h.029v.144h.028v.115l.315.977.516 1.033.057.029.029.114h.029l.028.086.058.029v.057l.086.058v.057l.057.029v.058l.086.058v.057l.086.059v.057l.114.086v.058l.172.144v.058l.344.315.229.259h.057l.144.173h.057l.086.114h.058l.028.058h.029l.029.057h.058l.028.057h.058l.057.087h.057l.029.058c.029.01.057.02.086.028v.028h.057l.029.058c.029.011.057.02.086.028v.029c.039.01.077.02.115.028l.029.058.115.029.028.057h.058v.029h.057v.028h.058v.028h.057l.029.059.115.028v.028h.057v.029l.172.057v.029h.086v.028l.172.058v.027h.057v.029h.086v.028c.039.011.077.02.115.028v.029h.086v.029h.057v.028h.086v.028h.057v.029l.258.058v.028h.057v.029c.058.008.115.019.172.028v.028h.086v.029h.086v.027h.086v.029l.287.058v.028l.315.058v.028l.229.029c.295.1.665.137.975.229h.172v.028h.172v.029h.202v.027h.229v.029h.258v.029h.287v.028h.401c.134.038.365.028.545.028h.201v.029l.688-.029c.325-.009.65-.02.975-.028v-.028h.316v-.029h.258v-.029h.201v-.027h.201v-.029h.201v-.028c.115-.01.229-.02.344-.028v-.029h.143v-.028h.143v-.028h.144v-.029h.115v-.028l.373-.058v-.032l.344-.058v-.029c.067-.009.134-.02.201-.028v-.028l.201-.029v-.028h.086v-.028h.086v-.029h.086v-.028h.086v-.028h.086v-.029h.086v-.028h.086v-.028h.086v-.032h.086v-.027h.057v-.03l.172-.028v-.029h.058v-.028h.086v-.028l.115-.029v-.029h.086v-.027h.057v-.029h.086v-.028l.171-.058v-.027h.058v-.033h.086v-.029c.058-.02.115-.037.172-.057v-.029h.058v-.029h.057v-.027h.058v-.029h.057v-.03h.058v-.027h.057v-.029h.058l.028-.058h.058v-.028h.057v-.029h.058v-.029h.057a.984.984 0 0 0 .029-.056l.172-.058.028-.059.115-.028.028-.058h.058l.029-.057h.057l.029-.059.114-.027.029-.057h.057l.058-.088h.057l.029-.057h.057l.029-.057h.058l.057-.087h.057c.02-.028.038-.058.058-.087h.057l.058-.086h.057l.115-.143h.058l.114-.145h.058l.172-.201h.057l.144-.172.458-.431v-.058c.077-.066.153-.133.229-.201v-.057l.115-.086v-.058l.114-.086v-.058l.115-.086v-.057l.086-.059v-.058l.057-.028.029-.086h.029v-.058l.086-.058v-.057l.057-.029.029-.086h.028l.029-.115.058-.029.029-.085h.028l.029-.114a.765.765 0 0 1 .057-.029l.057-.172.058-.029v-.058h.029v-.058h.028v-.057h.029v-.058h.029v-.058h.028v-.057h.029v-.052h.029l.057-.172h.029l.029-.143h.028v-.059h.029v-.086h.029v-.057h.029v-.086h.028v-.058h.029l.029-.173h.029v-.057h.028l.029-.173h.029v-.114h.028v-.086h.029v-.087h.029v-.114h.029v-.115h.028v-.115h.029v-.115h.029v-.113h.028l.201-1.293v-.287c.005-.056.029-.057.029-.057v-.43h.028v-.947c.038-.135.029-.366.029-.545-.009-.306.033-.718-.038-.975zm-4.701-2.009v5.398h-.028l-.029.402h-.028v.143h-.029v.145h-.029v.113h-.028v.087h-.029v.087h-.029v.115h-.028v.057h-.029l-.029.172c-.66 1.529-1.756 2.627-3.268 3.303h-.086v.028h-.057v.028l-.172.029v.027h-.086v.029h-.085v.029h-.086v.028h-.115c-.612.218-1.478.345-2.293.345-.411-.01-.822-.02-1.232-.028v-.028h-.258v-.029h-.229v-.028h-.172v-.029h-.175v-.028h-.172v-.029h-.144v-.028h-.114v-.028h-.144v-.029h-.115v-.029h-.115v-.028h-.086v-.028h-.114v-.029l-.602-.172v-.027h-.058v-.029h-.086v-.033h-.058v-.028l-.143-.028v-.029l-.172-.057v-.029h-.058v-.029h-.057v-.03h-.058v-.028h-.054v-.029h-.057v-.027h-.058l-.029-.059a6.353 6.353 0 0 1-.115-.028l-.028-.058h-.057v-.029c-.028-.008-.057-.019-.086-.027l-.028-.058h-.058l-.057-.087h-.058a2.647 2.647 0 0 1-.086-.115h-.057l-.229-.257-.114-.087v-.057l-.115-.087-.029-.085c-.019-.01-.038-.021-.057-.029v-.058l-.057-.028a2.955 2.955 0 0 0-.029-.087h-.029v-.058l-.058-.028a17.67 17.67 0 0 1-.057-.173c-.019-.009-.039-.02-.058-.027l-.315-.805v-.115h-.028v-.115h-.029v-.114h-.029v-.144h-.029v-.172h-.028l-.028-.517h-.029v-.978h.029v-.257h.028v-.173h.028v-.114h.029v-.143h.028v-.086h.029v-.087h.029v-.086h.028v-.087h.029v-.086h.029l.057-.172h.029v-.057h.029l.029-.115h.029l.028-.087.058-.028v-.058c.019-.01.038-.02.057-.028v-.058l.086-.058v-.057l.114-.087c.599-.835 1.64-1.228 2.695-1.607l.229-.029c.268-.091.611-.145.889-.229h.172v-.028h.144v-.028h.172v-.029h.172v-.029l.659-.057v-.028c.144-.011.287-.021.43-.028.376-.109.86-.092 1.232-.201l.603-.059v-.028h.201v-.028h.172v-.029h.201c.299-.088.683-.11.975-.201.153-.019.306-.037.458-.057v-.029h.115v-.029h.143v-.027h.143v-.03h.115v-.028h.143c.434-.141.933-.225 1.348-.374h.115v-.029h.086v-.029h.086v-.03h.086v-.027c.167-.068.393-.096.488-.23.052.061.026.259.026.371zm67.54-2.24v-.315l-.028-.402h-.029v-.23c-.046-.16-.068-.387-.114-.545v-.172c-.063-.208-.106-.486-.172-.688l-.028-.259h-.029l-.029-.229h-.03v-.115h-.028v-.115h-.027v-.115h-.029v-.115h-.029v-.086h-.028v-.114H87.9l-.03-.204h-.027l-.059-.287h-.028v-.086h-.029v-.085h-.028v-.086h-.029V19.9h-.027l-.029-.173h-.028v-.087h-.028v-.058h-.029l-.028-.172h-.031v-.058h-.028l-.029-.172h-.028v-.057h-.029v-.086h-.028v-.057H87.3v-.086h-.03l-.029-.115h-.028v-.086h-.029a6.353 6.353 0 0 1-.028-.115h-.028v-.086h-.029l-.057-.172h-.029v-.057h-.028v-.086h-.028l-.057-.172h-.029v-.058h-.031v-.058h-.029v-.057h-.028v-.057h-.029v-.058h-.027v-.058l-.058-.028v-.058h-.029v-.058h-.03v-.057h-.029V17.4h-.027v-.058l-.058-.028-.058-.172-.057-.029a4.836 4.836 0 0 1-.029-.115c-.02-.009-.038-.019-.057-.029a4.836 4.836 0 0 1-.029-.115.758.758 0 0 1-.057-.029v-.057l-.058-.029v-.057l-.058-.029v-.058l-.058-.028v-.057l-.057-.028v-.058l-.058-.029v-.058h-.028a1.434 1.434 0 0 1-.028-.086l-.059-.029v-.057c-.027-.02-.057-.039-.085-.058v-.058l-.087-.057v-.058l-.085-.057v-.058l-.114-.086v-.058l-.115-.086v-.058a21.689 21.689 0 0 1-.172-.143v-.058h-.027l-.086-.115-.172-.144v-.058l-.258-.229-.086-.114h-.058l-.258-.288h-.058l-.114-.144h-.058l-.085-.115h-.057l-.085-.115h-.057l-.058-.086-.086-.028a.768.768 0 0 1-.028-.058h-.058l-.029-.057h-.057l-.057-.086h-.058l-.028-.057-.086-.029v-.029l-.115-.028c-.01-.02-.02-.039-.028-.058l-.086-.029v-.029h-.058v-.024h-.057a1.045 1.045 0 0 0-.029-.058l-.114-.029-.029-.057h-.057v-.029h-.058v-.029h-.057v-.028h-.057v-.029h-.058l-.028-.057-.172-.058v-.029h-.058v-.029l-.172-.057v-.029h-.086v-.028h-.057v-.029l-.115-.029v-.029h-.086v-.029l-.115-.028v-.029h-.086v-.029h-.058v-.029l-.172-.028v-.029h-.057v-.028l-.258-.057v-.029h-.086v-.029h-.086v-.029h-.086v-.028l-.201-.029v-.029l-.229-.028v-.029h-.086v-.029h-.143v-.028h-.115v-.029h-.115v-.029h-.143v-.029h-.144v-.029l-.774-.086v-.028h-.229v-.028h-.315v-.029h-.458c-.227-.064-1.178-.063-1.405 0h-.315l-.516.029v.028h-.287v.028h-.257v.029h-.201v.029h-.201c-.149.043-.368.069-.516.115h-.144v.029l-.258.028v.029h-.114v.029h-.144v.028h-.114v.029h-.115v.029l-.201.028v.029l-.201.029v.029h-.086v.029h-.085v.028l-.287.058v.028h-.057v.029l-.258.058c-.541.236-1.1.475-1.577.775l-.172.058-.028.057h-.057v.029h-.058l-.029.057-.115.029-.028.058-.086.028v.029l-.114.029-.029.057h-.057v.029l-.086.029-.029.058h-.057l-.058.086h-.057l-.029.058h-.058l-.057.086h-.057l-.057.086h-.057l-.058.086h-.057l-.086.115h-.057l-.115.144h-.058l-.172.201h-.057l-.344.374-.458.431v.058l-.201.172v.058l-.143.115v.058l-.115.086v.058l-.086.057v.058l-.115.086v.058l-.057.028v.058l-.086.058v.058l-.058.028v.057l-.086.058v.058l-.057.029-.029.086h-.029v.057l-.057.029-.029.086h-.028v.057l-.058.028-.029.115-.057.028-.029.086h-.028v.058h-.029v.058l-.058.028-.057.172-.058.029v.058h-.028v.057h-.029v.058h-.029v.058l-.057.029v.057h-.028v.058h-.029v.058h-.028v.058h-.029v.057h-.028v.058h-.028v.057h-.029v.057h-.029v.058h-.028v.057h-.029v.058h-.029l-.057.172h-.029l-.028.143h-.029l-.029.115h-.028v.086h-.029l-.029.114h-.028l-.172.518h-.029v.057h-.029l-.057.258h-.029v.058h-.028v.086h-.029v.086h-.029v.085h-.029v.086h-.028v.115h-.029v.086h-.029v.086h-.028v.086h-.029v.115h-.029l-.058.316h-.028v.086h-.028l-.029.229h-.028l-.058.373h-.028v.144c-.065.204-.108.48-.172.689v.172c-.064.214-.08.501-.144.718v.23h-.028v.229h-.029v.259h-.029v.259h-.028v.344h-.028l-.029.604v.316c-.075.264-.029.689-.029 1.004 0 .324-.047.762.029 1.034v.46h.029v.373h.028v.287h.028v.258h.029v.201h.029v.201h.028v.201c.059.199.083.464.144.66v.144h.028l.029.259h.029v.115h.028v.113h.029v.145h.028v.086h.028l.058.346h.028l.029.2h.028v.087h.028v.086h.029v.086h.028l.086.373h.029v.057h.029l.057.259h.029v.058h.029l.028.173h.029v.058h.029v.086h.028v.057h.029v.086h.029l.029.115h.029v.086h.028l.028.115h.029v.057h.029v.086h.028v.059h.029l.029.114h.028v.058h.029v.058h.029v.058h.028v.057h.029v.048h.029v.058h.028v.057h.029v.058h.029v.058h.028v.057h.029v.058h.029v.058l.057.029v.057h.029v.058h.028v.058h.029v.057l.057.029.029.115.058.028v.058h.028v.057l.058.029.029.086h.028l.029.114.058.029v.058h.028l.029.086.057.029v.057l.086.057v.059c.019.009.038.02.057.028v.058l.086.057v.057l.058.03v.057l.086.058v.059c.038.027.076.057.114.085v.058l.115.086v.057l.144.115v.057l.172.145v.057l.057.029.086.115.229.201v.057l.144.115.028.057h.058l.344.374h.057l.144.172h.057l.086.115h.057l.086.114h.057l.057.087h.057c.02.028.039.058.058.087h.058l.057.086h.057c.01.02.02.037.029.057l.086.028v.03h.057c.02.027.039.057.058.085h.057l.029.058.114.029.029.057c.029.01.057.02.086.028v.028h.057v.029h.058l.028.057.115.029.029.057h.057v.029h.057l.029.058h.057v.028h.058v.029h.058v.028h.057v.028h.057l.029.059c.057.019.115.037.172.057v.029h.058v.028l.172.058v.027h.086v.029l.172.058v.028h.057v.029h.086v.028l.115.028v.029h.086v.029h.057v.027l.172.029v.028h.057v.028l.258.059v.028h.086v.028h.086v.029h.086v.028h.086v.028h.086v.029h.086v.029c.077.008.153.018.229.028v.028h.086v.028h.115v.028h.115v.029h.115v.028h.143v.029h.115v.028h.144v.029h.172v.027h.144v.029h.172v.029h.2c.217.063.525.051.746.114h.401c.237.067.595-.03.86.028v.029c.047.008.051-.027.057-.029h.258c.273 0 .636.034.86-.028h.516v-.028h.373v-.029h.287v-.027h.258v-.029c.258-.029.516-.059.774-.086v-.029h.144v-.028h.143v-.029h.144v-.028h.143v-.029l.344-.057v-.028c.115-.021.229-.038.344-.058v-.029l.201-.028v-.028h.086v-.029h.085v-.028h.086v-.028h.086v-.029l.258-.058 1.061-.487.029-.058h.058v-.029h.057v-.028h.057v-.028h.058v-.028h.057l.029-.059h.058v-.03h.057l.029-.059.114-.028v-.028l.086-.029.028-.057h.057l.029-.058h.058l.028-.058h.057v-.029l.086-.028.028-.057h.057l.057-.087h.058l.029-.057h.057l.057-.086h.058l.029-.059.086-.027c.019-.029.037-.059.057-.087h.057l.029-.058h.028l.028-.058h.058l.115-.144h.058l.143-.172h.057v-.029l.087-.057.229-.259h.057l.115-.144.057-.028v-.058l.344-.315v-.058l.173-.144v-.058c.048-.037.095-.076.143-.115l.029-.086c.019-.01.038-.02.058-.028v-.058l.114-.086v-.058l.087-.058v-.057c.027-.02.056-.039.085-.058v-.058c.028-.02.058-.037.085-.057v-.058c.02-.01.039-.02.059-.028v-.059l.086-.057v-.058l.057-.028.029-.086h.028v-.058c.019-.01.038-.02.058-.028v-.059l.057-.028v-.058l.058-.027.028-.087h.029v-.058h.029v-.057l.057-.029c.009-.039.019-.076.027-.115l.059-.027.028-.115.058-.029.057-.172h.029v-.058h.028v-.058h.029l.056-.172h.029v-.086h.029v-.05h.028v-.085h.028v-.087h.029v-.087h.028v-.086h.028v-.115h.028v-.114h.029v-.201h.028c.055-.188-.039-.8-.086-.919H87.5c-.011-.048-.019-.096-.028-.144h-.032v-.058h-.028v-.057h-.029v-.058h-.028v-.058h-.029v-.058l-.057-.028v-.058l-.057-.028v-.059l-.086-.057v-.057l-.145-.115v-.059l-.057-.027-.144-.172h-.058l-.086-.115h-.057l-.058-.086a6.383 6.383 0 0 0-.114-.029l-.029-.057h-.057v-.026a4.836 4.836 0 0 0-.115-.029v-.027l-.258-.059v-.027c-.104-.039-.676-.104-.83-.059v.028h-.145v.03h-.113v.027h-.086v.029h-.086v.029h-.057v.027h-.058v.029h-.058v.029h-.055v.028h-.058l-.028.058h-.057v.028l-.087.028-.028.057h-.058l-.114.145h-.058l-.201.23a5.525 5.525 0 0 1-.144.113v.059l-.172.143v.058l-.143.115a2.898 2.898 0 0 1-.029.086c-.019.01-.038.02-.057.028v.059c-.028.018-.058.037-.086.057l-.028.086-.057.029v.057l-.086.059v.057c-.028.019-.057.039-.086.057v.059l-.086.057v.058l-.057.028v.059a1.6 1.6 0 0 0-.086.057v.057l-.086.059v.057l-.086.058v.058c-.029.02-.058.037-.086.058v.057l-.086.058v.058l-.115.085v.058l-.144.115v.058a14.31 14.31 0 0 0-.229.201v.057l-.057.029-.172.201h-.057c-.058.066-.115.134-.172.201l-.086.028a2.605 2.605 0 0 0-.057.087h-.058l-.057.085h-.058l-.058.087h-.057l-.028.057-.086.029v.028h-.057l-.029.058h-.057l-.029.057-.086.029v.028l-.172.058-.029.058h-.057v.028h-.058v.029h-.057v.028h-.058v.028h-.057l-.029.059h-.057v.027h-.086v.029h-.058v.028h-.057v.028l-.172.059v.028h-.086v.028h-.057v.029h-.086v.027h-.057v.029h-.086v.029h-.058v.028H79.1v.028h-.086v.029h-.086v.028l-.201.028v.029l-.803.172-.516.058h-.258c-.198.057-.527.028-.774.028h-.287v-.028l-.688-.028v-.029h-.229v-.029h-.201v-.027H74.8v-.029h-.143v-.029h-.144v-.027h-.114v-.029h-.115v-.029h-.115v-.028l-.229-.028v-.029l-.516-.143v-.029h-.058v-.028h-.086v-.028h-.058v-.029l-.143-.029v-.028a8.668 8.668 0 0 1-.172-.058v-.027h-.057v-.029h-.058v-.029h-.057v-.028h-.057v-.028h-.058v-.029h-.057l-.029-.057a4.836 4.836 0 0 0-.115-.029l-.029-.058-.115-.028-.028-.057h-.058v-.029a2.167 2.167 0 0 0-.086-.029l-.029-.057h-.057l-.028-.058-.086-.028-.057-.087h-.056l-.057-.085c-.028-.011-.057-.02-.086-.029l-.143-.172h-.058l-.258-.287-.144-.115v-.058l-.172-.144v-.058l-.115-.086v-.058c-.019-.01-.038-.02-.057-.027v-.029l-.058-.029v-.057l-.057-.029v-.058a2.943 2.943 0 0 0-.057-.028v-.057l-.058-.029v-.064c-.019-.009-.038-.02-.057-.028v-.058l-.057-.028v-.058l-.058-.029-.057-.171-.057-.029v-.058h-.029v-.058h-.029v-.057h-.028v-.059h-.028v-.057h-.029v-.057h-.028v-.059h-.029l-.057-.172h-.029l-.029-.144h-.028V32.5h-.029v-.086h-.029v-.058h-.028v-.085h-.029v-.059h-.029l-.057-.258h-.029v-.057h-.029v-.115h-.029V31.7h-.028v-.087h-.028v-.086h-.029l-.028-.23h-.029v-.086h-.029v-.114h-.028l-.029-.259h-.029v-.144h-.028l-.029-.315c-.049-.163-.066-.407-.115-.575v-.258h-.029v-.316h-.028v-.431c-.047-.163-.034-.448-.029-.66h15.365c.81 0 1.625.029 2.207-.201v-.028l.172-.029v-.028l.172-.058v-.027h.059v-.03h.057v-.028h.057v-.03h.058l.029-.058h.058l.027-.057h.058l.058-.086h.057l.145-.174.229-.2v-.058l.086-.057v-.058l.058-.028v-.059l.058-.028.028-.114.058-.029.258-.66v-.115h.028v-.113h.028v-.145h.029v-.173h.029v-.2h.028v-.402c.026-.099.067-.492.028-.632h-.033zm-5.131-.546l-.086.058c-.279.381-.603.315-1.233.315H69.036c.014-1.192.315-2.153.688-2.986v-.085h.029v-.058h.028l.029-.115h.029v-.057h.028v-.058h.029v-.057h.029v-.058h.029v-.057h.028v-.057h.029v-.057h.029v-.058h.028V20.3h.029v-.058l.057-.029.029-.114.057-.029v-.058h.029v-.057l.057-.028v-.057l.058-.029v-.058l.057-.029v-.057h.029l.029-.086.057-.029v-.058l.086-.057v-.057l.086-.057v-.058l.114-.086v-.058l.144-.115v-.058l.229-.201v-.058l.286-.258.144-.172h.058l.201-.23h.057l.086-.115h.058l.086-.115h.057l.029-.058h.057l.058-.086h.057l.029-.057.086-.029v-.029h.058l.028-.058.086-.029v-.028l.115-.029.029-.058.114-.029.029-.057h.057v-.029h.058v-.028h.058V17.2h.057v-.029h.057v-.029h.058v-.029h.057v-.029h.057v-.028h.058v-.029l.115-.029v-.028h.057v-.029h.086v-.029h.057v-.029h.086v-.029h.058v-.029h.086v-.028h.086v-.029h.086v-.028h.086c1.47-.581 3.981-.306 5.246.259v.029l.172.057v.029h.058v.029h.057v.029h.057v.028h.058v.029h.057v.028h.058v.029h.057v.028h.058l.028.058.115.029.029.057h.057l.029.058h.057l.029.058h.057l.029.058h.057l.028.057h.058l.057.086h.058l.057.086.086.028.143.172h.058l.115.144.258.23v.058l.172.143.028.086.086.058v.057l.086.058v.057l.057.029v.058l.086.057v.058l.058.028.028.115.058.029.028.086h.029l.029.115.057.029v.058h.029v.057h.028v.058h.029v.058l.057.028.029.116h.029l.028.114h.028v.086h.029v.058h.029l.058.172h.028v.087h.029v.058h.029l.028.143h.029v.086h.028v.057h.029l.057.259h.029v.086h.028v.086h.028l.028.2h.029l.028.201h.029l.058.345h.028l.086.546h.029v.172h.028v.173h.028v.201h.029c.055.195-.08.532-.145.627zm56.074.489v-.402h-.029v-.287h-.028v-.23h-.028v-.199h-.029v-.173c-.042-.143-.07-.345-.114-.488v-.144h-.028l-.059-.401c-.113-.355-.192-.779-.314-1.12v-.115h-.029l-.057-.288h-.029v-.086h-.027v-.086h-.029v-.085h-.029v-.086h-.028v-.086h-.028v-.086h-.029l-.057-.258h-.029v-.058h-.028l-.028-.172h-.029v-.058h-.027v-.086h-.029c-.01-.048-.02-.096-.028-.144h-.029v-.059h-.028v-.086h-.029v-.058h-.027v-.086h-.029c-.01-.039-.02-.077-.028-.114h-.028v-.086h-.029l-.057-.172h-.029v-.058h-.029v-.086h-.027l-.059-.172h-.028v-.058h-.028v-.058h-.029v-.057h-.027v-.057h-.029v-.058h-.028v-.058h-.029v-.057h-.028v-.057l-.057-.029v-.058h-.029v-.058h-.028V17.4h-.028v-.057l-.059-.029v-.057h-.027V17.2h-.029v-.058c-.02-.009-.038-.019-.057-.029l-.029-.115-.058-.029v-.058h-.028v-.058l-.057-.028v-.057l-.058-.029v-.058l-.058-.029-.028-.114-.058-.029v-.058l-.086-.058v-.058l-.057-.028a4.371 4.371 0 0 1-.029-.086h-.028v-.057a6.57 6.57 0 0 0-.087-.058v-.058l-.057-.028v-.057l-.114-.086v-.058l-.086-.057v-.058a18.14 18.14 0 0 1-.144-.115v-.057l-.143-.115v-.057c-.097-.086-.191-.173-.287-.259v-.058l-.287-.258-.114-.144h-.058l-.229-.259h-.057l-.115-.144h-.058l-.114-.144h-.058l-.057-.086h-.058l-.058-.086h-.057l-.059-.086h-.057l-.028-.057h-.058l-.057-.086h-.058l-.028-.057h-.057l-.029-.058a4.371 4.371 0 0 0-.086-.029v-.029h-.058v-.029h-.058l-.028-.058-.114-.028-.029-.058h-.057v-.028h-.058a2.968 2.968 0 0 1-.028-.058h-.058v-.029h-.058v-.029h-.057v-.023h-.057c-.537-.338-1.195-.571-1.836-.804h-.114v-.028h-.086v-.029l-.2-.029v-.028l-.23-.029v-.028l-.258-.029v-.029h-.143c-.138-.042-.347-.073-.487-.114l-.659-.058v-.028l-.488-.029h-.286c-.227-.064-1.178-.063-1.405 0h-.314l-.517.029v.028h-.286v.029h-.259v.029h-.2v.028h-.201v.028h-.172v.029h-.172v.029h-.143v.029h-.172v.029l-.259.028v.029h-.114v.028h-.143v.029h-.115v.029h-.115v.028l-.2.028v.029l-.201.028v.029h-.087v.029h-.085v.028h-.087v.029h-.085v.028h-.087v.028h-.086v.029h-.086v.029h-.086v.029h-.086v.029h-.057v.028h-.086v.029l-.144.029v.029h-.058v.029h-.086v.029c-.038.01-.076.02-.115.028v.029h-.085v.029h-.058v.029l-.115.029v.029h-.057v.029h-.058v.028h-.058v.029h-.057v.029h-.058v.029a3.794 3.794 0 0 0-.114.029v.029h-.058v.029h-.058v.028h-.057v.028h-.058v.029h-.059v.028h-.057a.768.768 0 0 0-.028.058l-.172.058c-.01.019-.02.038-.028.057l-.115.029-.029.057h-.057v.029h-.058c-.01.019-.02.038-.028.057l-.086.029v.028l-.115.029v.028l-.086.028-.029.058h-.057a1.6 1.6 0 0 0-.057.086h-.058c-.01.02-.02.039-.028.058h-.057l-.029.057h-.058l-.058.086h-.057l-.058.086h-.058c-.02.029-.037.058-.057.086h-.058l-.087.115h-.057l-.114.144h-.058l-.172.201h-.057l-.517.545a28.1 28.1 0 0 1-.258.229v.058l-.2.172v.058l-.059.029v.028l-.085.058v.057l-.144.115v.058l-.086.057v.058l-.086.058v.058l-.086.057v.058l-.086.057v.058l-.058.028v.057l-.086.058v.058l-.058.029-.028.086h-.028v.057l-.058.029c-.01.029-.02.058-.028.086h-.029c-.01.038-.02.076-.028.115l-.058.028c-.01.029-.02.058-.028.086h-.028l-.029.115-.057.028-.029.115-.057.029-.029.115-.057.028v.058h-.029v.057h-.028v.058h-.028v.058l-.057.028v.058h-.029v.057h-.029v.058h-.028v.058h-.028v.057h-.029v.058h-.028v.058h-.028v.058h-.028v.057h-.028v.057h-.028l-.058.172h-.028v.086h-.029v.058h-.027v.057h-.03l-.029.115h-.028v.086h-.028l-.029.115h-.027v.086h-.029v.057h-.029v.086h-.028v.057h-.028l-.029.144h-.027l-.029.172h-.028v.057h-.029v.086h-.028v.086h-.029v.086h-.027v.086h-.029v.086h-.028v.086h-.028v.086h-.029v.086h-.029v.086h-.027v.086h-.029l-.028.201h-.028l-.029.201h-.029l-.057.345h-.029v.115h-.027v.114h-.029v.115h-.029v.115h-.028v.144c-.051.162-.093.38-.143.545v.173h-.029v.143h-.028v.173h-.029v.172h-.027v.201h-.029v.201h-.028v.201h-.029v.229h-.028v.26h-.029v.286h-.027v.315h-.029v.402c-.041.148.019.408-.028.574-.065.231-.028.609-.028.891 0 .324-.048.762.028 1.033v.488h.028v.373h.029v.287h.027v.259h.029v.229h.028v.201h.029v.172h.028v.201c.079.266.118.605.201.861v.145h.027v.113h.029v.115h.028v.115h.029v.115h.028v.115h.029v.086h.027v.114h.029l.029.201h.028v.087h.028v.086h.029v.086h.028v.086h.028v.086h.029v.086h.027v.087h.029v.087h.029v.085h.028v.058h.028l.029.172h.027v.059h.029v.086h.028l.029.143h.028v.059h.029v.085h.027l.029.115h.028v.086H116l.028.114h.029v.087h.027v.058h.029c.01.038.02.076.028.114h.028v.058h.029v.058h.029v.058h.027v.057h.029v.058h.028v.058h.028v.058h.029v.057h.029v.058h.028v.058h.028v.057h.028v.058l.058.029.058.172.058.029.057.172c1.207 1.902 2.731 3.453 4.873 4.422v.028h.057v.028h.059v.029l.172.058v.028h.086v.029h.057v.027h.086v.029c.049.01.096.02.144.028v.028h.058v.029h.086v.029h.057v.028l1.434.431h.144c.223.07.515.104.745.173h.201c.217.062.524.051.745.114h.401c.237.067.595-.03.86.029v.028c.047.007.05-.027.058-.028h.258c.271-.002.636.033.859-.029h.516v-.028h.373v-.028h.287v-.029h.258v-.029c.258-.028.516-.058.773-.087v-.027h.144v-.029h.144v-.029h.143v-.028h.143v-.03l.346-.057v-.028l.344-.059v-.028l.201-.028v-.03h.085v-.027h.087v-.029h.086v-.029h.086v-.028l.258-.058v-.029h.057v-.028h.086v-.029h.058v-.029h.087v-.028l.113-.028V40h.087v-.03l.172-.058v-.029h.058v-.028h.057v-.029h.058v-.028h.058v-.028h.057v-.029h.058v-.028h.058c.01-.02.02-.038.027-.058h.058v-.029h.058v-.027h.059v-.029h.056v-.028h.058l.029-.058h.057v-.029h.057l.029-.057.115-.029v-.027l.086-.029.028-.059h.058a.498.498 0 0 0 .027-.057h.059l.028-.057h.058v-.029l.086-.029.028-.057h.058c.02-.028.037-.057.057-.086h.058l.028-.058h.057l.058-.086h.058l.029-.058.085-.029.058-.086h.058c.028-.038.058-.076.085-.114h.059l.086-.116h.057a8.71 8.71 0 0 0 .144-.172h.058c.096-.104.191-.21.286-.316h.058l.201-.229c.028-.02.057-.038.086-.057v-.059l.314-.286v-.058l.172-.143v-.059l.115-.086v-.058l.115-.086v-.058c.027-.02.057-.037.085-.057v-.058c.029-.021.058-.038.087-.058v-.058l.086-.058v-.057l.086-.059v-.057l.057-.029v-.057l.087-.058v-.058l.057-.027.029-.087h.028v-.058c.019-.01.038-.02.057-.028v-.058l.059-.029.027-.085h.029v-.058l.057-.029.029-.114c.019-.009.038-.02.057-.028l.029-.087h.029c.018-.058.037-.115.057-.172l.057-.028a6.91 6.91 0 0 0 .057-.172h.029v-.059h.029v-.052h.028l.058-.173h.027v-.085h.029v-.059h.029l.028-.143h.028l.144-.604-.028-.747h-.029v-.086h-.029v-.113h-.027v-.087h-.029a3.797 3.797 0 0 1-.028-.114h-.028v-.059h-.029v-.057h-.029v-.057h-.027v-.058a.597.597 0 0 0-.057-.028v-.059h-.029a2.841 2.841 0 0 1-.029-.085l-.057-.029v-.057a5.137 5.137 0 0 1-.143-.115v-.057l-.059-.029-.172-.2h-.057l-.086-.115h-.058l-.058-.087-.115-.027-.027-.059h-.058v-.028l-.114-.028v-.028l-.259-.058v-.029c-.104-.037-.675-.103-.831-.058v.028h-.144v.029h-.114v.029h-.086v.028h-.086v.029h-.058v.028h-.058v.028h-.057v.028h-.059v.029h-.057c-.01.02-.02.039-.027.057h-.059l-.029.059h-.057c-.02.027-.037.057-.057.086h-.058c-.028.038-.058.076-.085.114h-.059l-.172.201-.143.115v.058c-.067.058-.135.114-.201.172l-.028.086-.087.057v.059l-.114.086-.028.086-.058.029v.057c-.028.02-.058.039-.086.057l-.028.087c-.02.01-.039.021-.058.028v.058l-.086.058v.058c-.019.01-.038.02-.058.028v.058l-.057.029-.029.085-.086.059v.057c-.028.02-.057.037-.086.057v.059l-.057.027v.059c-.02.01-.039.02-.058.028l-.028.085c-.039.03-.076.059-.115.087v.058l-.115.086v.058l-.114.087v.057l-.229.201v.058l-.086.058c-.057.066-.113.133-.172.199h-.057l-.172.203h-.058l-.086.113h-.058c-.02.029-.037.059-.057.086h-.058l-.058.087h-.057l-.029.058h-.057l-.029.058h-.057l-.029.058h-.057l-.029.057h-.058l-.028.059c-.037.008-.076.019-.114.028l-.028.058h-.058v.027h-.058v.029h-.058v.028h-.057v.029h-.058l-.028.058h-.058v.027c-.037.011-.076.02-.114.029v.029h-.086v.028h-.058v.029l-.172.058v.027h-.086v.029h-.057v.028h-.086v.028h-.058v.029h-.087v.029h-.057v.027h-.086v.029h-.086v.029h-.087v.028l-.2.028v.029l-.803.172-.516.057h-.258c-.198.057-.527.029-.774.029h-.286v-.029l-.688-.027v-.029h-.229v-.029h-.201v-.027h-.172v-.029h-.143v-.029h-.143v-.028h-.115v-.028h-.115v-.029h-.115v-.028a5.725 5.725 0 0 0-.229-.028v-.029h-.087v-.029h-.086v-.027h-.086v-.029h-.086v-.028h-.086V36.1h-.058v-.029l-.173-.029v-.027h-.057v-.029a3.33 3.33 0 0 0-.144-.028v-.029a8.57 8.57 0 0 1-.171-.058v-.029h-.059v-.027h-.057v-.029h-.058v-.036h-.058v-.028h-.057v-.029h-.058l-.028-.057-.115-.029-.028-.057-.114-.029-.029-.058h-.057v-.028l-.086-.029-.029-.057h-.057l-.029-.059-.086-.028c-.02-.028-.037-.057-.057-.085h-.058c-.028-.039-.058-.077-.087-.115h-.057a35.88 35.88 0 0 1-.172-.201h-.057c-.029-.039-.059-.076-.086-.115l-.259-.229v-.058l-.2-.172v-.058c-.039-.028-.076-.058-.115-.087v-.057l-.086-.058v-.057a3.183 3.183 0 0 1-.086-.057v-.058l-.057-.028-.029-.087h-.028v-.058l-.058-.028-.028-.085h-.028v-.059h-.029v-.057l-.057-.029-.029-.114c-.02-.011-.038-.021-.057-.028v-.059h-.029v-.057h-.028v-.059h-.028v-.057h-.029v-.057h-.027v-.059h-.029v-.054h-.029c-.02-.057-.038-.115-.057-.172h-.029v-.087h-.027c-.011-.038-.02-.077-.029-.114h-.029v-.086h-.028v-.058h-.028v-.086h-.029v-.057h-.027l-.373-1.264-.059-.432h-.027v-.143h-.029v-.173h-.028v-.2h-.028v-.23h-.029v-.258h-.028v-.316h-.028v-.43c-.045-.156-.033-.43-.029-.632h15.365c.81 0 1.625.028 2.208-.202v-.028l.172-.028v-.029l.172-.057v-.029h.058v-.029h.057v-.028h.058v-.029h.058l.029-.057h.057v-.029c.027-.01.057-.019.086-.028l.029-.058h.057l.172-.201.258-.229v-.058a1.6 1.6 0 0 0 .086-.057v-.059l.057-.028.029-.114.058-.028.028-.116h.029c.01-.037.018-.075.027-.113h.029c.01-.049.02-.096.028-.145h.029v-.086h.028v-.058h.028l.058-.286h.028l.058-.432h.029v-.229h.027v-.345c.027-.095.066-.614.029-.747h-.035v-.003zm-5.133-.489c-.027.02-.057.038-.085.058-.269.376-.587.315-1.204.315h-13.072a7.071 7.071 0 0 1 .631-2.842v-.086h.028v-.058h.028v-.085h.029l.057-.173h.029v-.057h.028v-.058h.028v-.057h.029v-.058h.028v-.057h.028v-.057h.029v-.057h.029v-.058h.027V20.3l.057-.029.059-.172h.027l.029-.086.057-.028.029-.115.058-.029v-.058h.028l.029-.086c.019-.01.037-.02.057-.029v-.057l.086-.058v-.058l.058-.028v-.057l.114-.086v-.058a.758.758 0 0 0 .057-.029l.029-.086.145-.115c.008-.029.018-.058.027-.086l.229-.201v-.057l.286-.259.115-.144h.057l.172-.201h.058l.115-.144h.057l.058-.086h.058l.058-.086h.057l.058-.086h.058l.027-.057h.059l.028-.058h.058c.01-.019.02-.038.027-.058h.058l.029-.057.114-.029.028-.058.114-.029.029-.057h.058v-.029h.058v-.028h.057V17.2h.058v-.029h.058v-.029h.057v-.029h.057v-.029h.059v-.028h.057v-.029l.115-.029v-.028h.057v-.029h.086v-.029h.058v-.029h.085v-.029h.059v-.029h.086v-.028h.086v-.029h.086v-.028h.086c1.471-.581 3.98-.306 5.246.259v.029c.057.02.115.038.172.057v.029h.057v.029h.059v.029h.057v.028h.057v.029h.058v.028h.058v.029h.057v.028h.058l.028.058.115.029.028.057h.058l.029.058h.057c.01.02.02.039.028.058h.058l.029.058h.057l.029.057h.057l.058.086h.058c.027.039.057.077.085.115h.058c.037.048.076.096.115.144h.057l.144.172.286.259v.058l.144.114v.058l.114.086.029.086.057.029v.057l.058.029v.058l.086.057v.058l.058.028v.058c.019.01.037.02.057.029l.029.115.057.029.029.115.057.029v.058h.029v.057h.028v.058h.028v.058l.059.028.027.116h.029v.057h.028l.058.172h.028v.086h.028l.029.115h.028v.087h.028l.029.114h.028l.028.173h.029v.057h.028l.058.259h.028v.086h.028v.086h.029v.085h.028l.028.201h.029l.028.23h.028c.02.114.039.229.057.344h.029l.029.287h.028v.144h.028v.144h.029v.172h.027v.202h.029c.069.219-.068.55-.14.654zm28.152 5.025v-.43h-.029l.029-.804v-7.237c0-.213.018-.494-.029-.66l-.028-1.005h-.028v-.229h-.029v-.172h-.028v-.173h-.028l-.029-.258h-.027l-.059-.345h-.028v-.086h-.028v-.085h-.029v-.086h-.028v-.086h-.028l-.029-.173h-.028l-.028-.144h-.029c-.01-.038-.02-.076-.027-.115h-.029v-.057h-.028v-.086h-.029l-.058-.172h-.029v-.058h-.027c-.01-.038-.02-.076-.028-.114l-.058-.029-.057-.172c-.02-.009-.039-.02-.058-.028-.01-.039-.02-.077-.028-.115l-.059-.028v-.058c-.019-.009-.037-.02-.057-.028v-.06l-.057-.029v-.058l-.058-.028v-.058l-.058-.028v-.058l-.086-.057v-.058l-.115-.086v-.058l-.172-.144v-.057l-.286-.258-.144-.173h-.058l-.143-.172h-.058l-.114-.144h-.058l-.086-.115h-.058l-.058-.086h-.057c-.01-.019-.02-.038-.028-.058h-.058c-.02-.028-.038-.057-.057-.086h-.058c-.01-.019-.02-.038-.028-.058h-.059l-.028-.057-.085-.029v-.028h-.059v-.027h-.057l-.029-.057a3.794 3.794 0 0 0-.114-.029l-.028-.057-.115-.029-.028-.058h-.058v-.029h-.057v-.028h-.058v-.028h-.058v-.029h-.057v-.029h-.058v-.028h-.058v-.029h-.057v-.029h-.057v-.029c-.059-.02-.115-.039-.173-.057v-.029h-.086v-.029l-.114-.029v-.028h-.086v-.029h-.058v-.029h-.086v-.028h-.058v-.029h-.086v-.029h-.057v-.029l-.172-.029v-.028h-.059v-.029l-1.375-.401h-.144v-.029h-.11v-.029h-.145v-.028h-.172c-.128-.039-.33-.076-.457-.115h-.201v-.029h-.172v-.029h-.23v-.029h-.229v-.028h-.258v-.029h-.345v-.028h-.401c-.158-.045-.426-.029-.631-.029h-1.089c-.066.059-.284.027-.401.029l-.831.057v.028h-.259v.029h-.229v.029h-.201v.029h-.201v.028h-.172v.029h-.172v.028h-.172v.029h-.143v.028h-.144v.029h-.144v.029h-.114v.028h-.115v.029l-.257.028v.029l-.316.058v.028l-.201.029v.029h-.085v.028h-.087v.029h-.113v.029l-.173.029v.028h-.058v.029l-.172.028v.029l-.172.029v.029h-.057v.029h-.086v.028h-.058v.029h-.087v.029l-.113.029v.029h-.086v.029l-.173.057v.029h-.058v.029h-.057v.029h-.057v.029h-.059v.028h-.057v.029h-.058v.029h-.057v.028h-.058v.028h-.058l-.028.058-.172.057-.029.057h-.057v.029h-.058l-.028.057h-.057l-.029.057h-.057l-.029.058h-.057l-.029.058h-.058l-.028.057h-.057l-.058.086h-.058l-.028.057h-.058a4.969 4.969 0 0 1-.086.116h-.057l-.087.114h-.057l-.144.173-.086.028-.287.316-.2.172v.057l-.144.115v.028c-.02.01-.038.02-.058.028v.058l-.143.115-.029.086-.058.029v.057c-.027.02-.057.039-.086.058l-.028.086-.058.029v.057c-.02.009-.037.019-.057.029-.01.029-.02.057-.028.086h-.029v.058l-.058.029-.028.114-.057.029a8.668 8.668 0 0 1-.058.172l-.058.028v.058h-.028v.057h-.029v.057h-.027v.058h-.019v.057h-.029v.057h-.028v.058l-.058.029v.086h-.027l-.029.115H142l-.029.115h-.028l-.029.115h-.027l-.029.143h-.028v.086h-.03v.06h-.029v.085h-.029v.059h-.027v.086h-.029v.086h-.028v.086h-.028v.086h-.029v.086h-.028l-.086.517a1.487 1.487 0 0 0 0 .775v.144c.175.527.394.94.803 1.235l.086.115h.058c.01.02.02.038.027.057l.087.029v.029l.172.058.028.058h.086v.029l.115.028v.029l.201.029c.283.096.684.152 1.003.058l.258-.029v-.029l.172-.029v-.029h.058v-.028l.144-.029.028-.058.172-.058.029-.058.085-.029.058-.086h.057l.029-.057.2-.172v-.057l.115-.086v-.058l.058-.029v-.057l.057-.029.029-.086h.028l.028-.115h.028l.029-.115h.028v-.086h.029v-.057h.028v-.086h.028l.029-.144h.027v-.058h.029v-.086h.029l.028-.115h.028v-.086h.029v-.057h.027v-.086h.029l.058-.172h.028v-.058h.029v-.057h.027v-.058h.029v-.057h.028v-.057h.029v-.058l.058-.029.027-.115h.029l.028-.086.058-.029v-.058l.058-.028v-.058l.085-.058v-.057c.029-.019.059-.038.087-.058v-.057l.114-.086v-.058l.287-.258.114-.144h.058l.086-.115h.057l.058-.086h.058c.01-.02.02-.038.028-.057l.087-.029v-.027h.057c.01-.019.02-.038.028-.058l.114-.029.029-.058h.057v-.028h.059v-.029h.057v-.028h.057v-.028h.058v-.029h.058v-.029h.057v-.029l.172-.057v-.029h.086v-.029h.059v-.028h.086v-.029h.057v-.029l.172-.028v-.029l1.032-.229.487-.029v-.029h.401c.239-.068.628-.029.917-.029 1.104 0 2.238.144 3.039.459l.172.029.717.315c.01.02.02.039.027.058l.116.029.028.058h.057v.029l.087.029.028.057h.057l.058.086h.058l.058.086h.057l.172.2c.096.087.19.173.287.259v.057l.086.058.028.086.058.029c.01.038.02.077.028.115l.057.029.029.115.058.029.087.259h.027l.029.114h.028v.086h.028v.086h.029v.086h.027v.115h.029v.115h.029v.115h.028v.172h.028v.23h.029v.316c0 .256.029.596-.029.804-.01.153-.02.306-.028.46h-.028l-.029.287h-.029v.115h-.027l-.029.173h-.028c-.01.047-.02.095-.028.143h-.029c-.01.038-.02.076-.027.115h-.029l-.029.115-.057.029v.058l-.058.029v.057l-.086.057v.058l-.058.028-.172.201c-.25.18-.592.301-.918.402l-.43.029v.028h-.229c-.347.099-.802.073-1.147.173h-.229v.028h-.229v.028c-.229.02-.459.038-.688.057v.029h-.229v.029h-.258v.028c-.152.009-.307.02-.459.028-.346.1-.801.072-1.146.172l-.459.029v.028c-.152.011-.306.02-.458.028-.347.1-.802.072-1.147.174h-.229v.027h-.229v.029l-.458.028c-.311.091-.702.106-1.003.201h-.144v.028l-.259.029v.029h-.114v.028h-.114v.028h-.115v.029h-.114v.027l-.201.029v.029l-.2.028v.028h-.086v.029h-.086v.028h-.086v.028h-.086v.028l-.172.03v.027h-.059v.029h-.085v.028c-.048.011-.097.019-.144.028v.029h-.058v.028h-.087v.029l-.113.028v.029h-.086v.027c-.058.021-.115.039-.172.059v.027h-.058v.029h-.058v.029h-.057v.028h-.058v.028h-.058v.029h-.057v.029h-.057v.028h-.059l-.028.058a5.765 5.765 0 0 0-.172.057l-.029.057-.114.029-.028.058-.114.028-.029.058h-.058l-.028.058h-.057l-.029.057h-.057l-.029.058h-.057l-.029.058h-.057l-.059.086h-.056l-.058.086h-.058l-.085.115h-.059l-.114.144h-.058c-.113.124-.229.249-.344.372l-.287.26v.057l-.172.145v.057l-.114.087-.028.086-.057.028v.059a1.624 1.624 0 0 0-.087.057l-.028.086-.059.029v.057a.758.758 0 0 1-.057.029l-.028.086h-.028v.057l-.058.029-.029.086h-.028l-.028.115c-.019.009-.038.02-.058.028l-.057.173-.058.027-.028.115h-.029v.059h-.028l-.058.172h-.029v.086h-.027l-.029.115h-.028v.086h-.028v.057h-.029v.086h-.027v.058h-.029l-.344 1.034v.115h-.029c-.01.086-.02.172-.028.258h-.028v.143h-.029v.173h-.029v.173h-.027v.229h-.029v.259h-.028v.286h-.028v.495h-.029c-.055.193.024.441.029.604.012.535.042 1.042.172 1.463v.144h.028v.115h.028v.114h.029v.115h.029v.115l.229.689h.028v.057h.028v.087h.029v.058h.029v.085h.027l.058.173h.028v.057h.029v.059h.027v.057h.029v.058h.029v.058h.028v.057h.028v.058h.029v.058l.057.028.058.173h.028l.029.086c.02.01.038.02.057.028.01.038.02.077.028.114l.058.029v.058l.086.058v.057l.058.029v.058l.086.058v.057c.028.02.058.039.087.058v.058l.114.086v.057l.171.145c.011.027.02.058.029.086l.287.258.229.259h.058c.057.067.113.134.171.2h.058l.086.115h.057l.058.086h.058l.058.086.085.029.029.058h.057l.029.058c.028.01.057.02.086.028v.028h.058l.028.058c.029.011.057.02.086.028v.029c.038.009.076.02.115.028l.027.058c.039.01.077.02.115.028l.029.058h.057v.029h.058v.028h.058v.028h.057l.029.059.113.028v.028h.059v.029l.172.057v.028h.086v.029l.172.058v.027h.058v.029h.085v.028c.039.011.077.02.115.028v.029h.086v.029h.058v.028l.172.028v.029h.058v.028c.057.01.114.02.172.028v.029h.057v.029c.058.008.115.019.172.028v.028h.086v.029h.086v.027h.086v.029l.287.058v.028l.315.058v.028l.372.059v.028h.115v.028h.114v.029h.144v.027h.144v.029h.144v.028h.172v.029h.172v.028h.172v.029h.2v.027h.229v.029h.258v.029h.287v.028h.4c.135.038.365.028.545.028h.23v.029l.659-.029c.324-.009.649-.02.974-.028v-.028h.316v-.029h.258v-.029h.201v-.027h.2v-.029h.2c.191-.056.447-.086.631-.143.096-.011.191-.02.287-.029v-.028h.115v-.029h.114v-.028h.114v-.029h.115v-.028l.344-.058v-.028c.066-.01.134-.02.201-.028v-.029h.086v-.029h.086v-.027h.086v-.029h.086v-.028h.086v-.028h.086v-.029h.086v-.029h.086v-.028h.086v-.03h.086v-.029h.059v-.028l.17-.028v-.029l.145-.029v-.028h.057v-.028h.087v-.029c.038-.009.075-.02.114-.027v-.029h.086v-.029a6.27 6.27 0 0 1 .114-.028v-.028l.144-.029v-.032l.172-.058v-.028h.058v-.029h.058v-.029h.057v-.028h.058v-.028h.058v-.03h.057v-.028h.057v-.029h.059v-.028h.057l.029-.058.172-.058.027-.057.173-.058.028-.058.115-.028c.01-.019.02-.038.028-.058h.058l.028-.058H158c.01-.019.02-.038.028-.058l.114-.027.029-.058h.057l.058-.087h.058c.01-.02.02-.038.028-.058l.087-.028v-.028h.057c.02-.028.038-.058.057-.086h.059l.057-.087h.057a1.6 1.6 0 0 0 .057-.086h.059l.086-.115h.057l.115-.143h.057l.144-.172h.029l.028-.059h.057l.287-.315.344-.315v-.058l.201-.173v-.058c.047-.038.096-.075.143-.114v-.058c.029-.019.059-.038.086-.058v-.057c.039-.029.077-.059.115-.086l.029-.086a.758.758 0 0 1 .057-.029v-.058l.058-.028v-.057l.086-.059v-.057l.058-.029.028-.086h.028v-.058l.058-.028.028-.087h.028l.029-.114.058-.029.027-.113.059-.029c.019-.059.037-.115.057-.172l.057-.029v-.058h.029v-.058h.029v-.057h.027v-.058h.029v-.058h.029v-.057h.028v-.054h.028c.02-.057.039-.114.057-.172h.029l.028-.144h.029v-.058h.028v-.086h.027v-.057h.029v-.086h.029v-.057h.028l.029-.172h.028v-.057h.029c.008-.058.018-.115.027-.173h.029v-.087h.028l.028-.2h.029v-.114h.028v-.115h.028v-.088h.029v-.143c.068-.212.106-.494.172-.717v-.201h.028v-.23h.028v-.258h.029v-.315h.029v-.432h.028v-.918c.085-.307.026-.966.026-1.347zm-4.73-2.239v5.428h-.029l-.027.401c-.067.249-.135.497-.201.747h-.029v.057h-.028l-.028.172h-.029c-.01.039-.02.076-.027.116h-.029v.056h-.029v.087h-.028l-.058.173h-.027l-.029.114c-.02.01-.039.02-.058.028a6.922 6.922 0 0 1-.058.172h-.027l-.029.087-.057.028-.029.115-.086.058v.058l-.058.029v.057l-.086.057v.058l-.086.058v.057l-.144.115v.057l-.314.288-.316.345h-.057l-.086.115h-.058l-.086.113c-.028.012-.058.02-.087.029l-.028.058h-.058l-.027.058c-.029.01-.058.02-.087.028v.029h-.058l-.027.058h-.058l-.029.057h-.058l-.027.057c-.058.021-.115.039-.172.059l-.029.057-.172.058v.028h-.057v.029h-.059v.029l-.172.057v.028h-.086v.028h-.057v.029h-.086c-.784.345-1.837.545-2.953.545l-1.176-.028v-.028h-.258v-.029h-.229c-.289-.082-.645-.111-.918-.201a8.427 8.427 0 0 0-.229-.027v-.029a6.864 6.864 0 0 0-.2-.028v-.028h-.086v-.029h-.086v-.029h-.087v-.027h-.085v-.029h-.087V36.5a5.172 5.172 0 0 0-.173-.027v-.029h-.058v-.029h-.086v-.028h-.057v-.028a7.337 7.337 0 0 0-.144-.029v-.029a5.765 5.765 0 0 1-.172-.057v-.029h-.058v-.028h-.057v-.028h-.058v-.039h-.058v-.028h-.057v-.028h-.057l-.029-.059-.115-.027v-.029c-.028-.009-.057-.02-.086-.028l-.029-.058h-.057c-.009-.019-.019-.038-.027-.058h-.059c-.02-.028-.038-.058-.057-.085h-.058c-.028-.039-.058-.077-.087-.115h-.057l-.229-.26c-.039-.027-.077-.057-.115-.086v-.057l-.115-.086-.028-.086-.058-.029v-.058l-.057-.028-.029-.086h-.028v-.058l-.058-.028c-.02-.059-.037-.115-.057-.172h-.029v-.058c-.019-.009-.037-.02-.057-.028v-.086h-.029v-.059h-.027a3.214 3.214 0 0 1-.029-.115h-.028v-.085h-.028v-.057h-.029v-.087h-.029v-.085h-.027v-.087h-.029v-.087h-.028v-.115h-.028v-.114h-.029v-.114h-.029v-.144h-.028v-.173h-.028l-.029-.516h-.027v-.977h.027v-.23h.029v-.172h.028v-.142h.028v-.115h.029v-.115l.287-.689.057-.028v-.058h.029l.028-.086.058-.029v-.057l.057-.029.029-.086.113-.087c.6-.835 1.641-1.228 2.696-1.606l.229-.029c.268-.09.611-.145.889-.229h.172v-.028h.143v-.029h.172v-.029h.172v-.031l.659-.058v-.027l.431-.029c.375-.109.859-.092 1.232-.201l.602-.058v-.028h.201v-.029h.172v-.03h.201c.302-.088.682-.111.975-.201.152-.018.306-.037.458-.057v-.027h.114v-.029h.145v-.029h.143v-.028h.115v-.028h.143c.434-.141.934-.224 1.348-.374h.115v-.028h.086v-.029h.086v-.028h.086v-.028c.168-.068.393-.096.486-.23.053.06.028.258.028.37z"></path></svg> 