<svg id="logo2" xmlns="http://www.w3.org/2000/svg" xmlns:xlink="http://www.w3.org/1999/xlink" width="284.781" height="54.75" viewBox="0 0 284.781 54.75">
  <defs>
    <style>
      .cls-1 {
        fill: #ff5757;
      }

      .cls-1, .cls-2, .cls-3, .cls-4 {
        fill-rule: evenodd;
      }

      .cls-2, .cls-3 {
        fill: #fff;
      }

      .cls-3 {
        filter: url(#filter);
      }

      .cls-4 {
        fill: #2d8934;
      }
    </style>
    <filter id="filter" x="11" y="3" width="49" height="37" filterUnits="userSpaceOnUse">
      <feOffset result="offset" in="SourceAlpha"/>
      <feGaussianBlur result="blur" stdDeviation="1.414"/>
      <feFlood result="flood" flood-opacity="0.38"/>
      <feComposite result="composite" operator="in" in2="blur"/>
      <feBlend result="blend" in="SourceGraphic"/>
    </filter>
  </defs>
  <path id="Forma_1" data-name="Forma 1" class="cls-1" d="M49.871,4.605A16.261,16.261,0,0,0,29.392,8.518,16.275,16.275,0,0,0,8.9,4.605,16.481,16.481,0,0,0,1.258,24.095C4.064,36.789,29.392,52.8,29.392,52.8s25.314-16.007,28.123-28.7A16.478,16.478,0,0,0,49.871,4.605Z" transform="translate(-0.438 -2.469)"/>
  <path id="Rounded_Rectangle_1" data-name="Rounded Rectangle 1" class="cls-2" d="M23.764,15.369a1.046,1.046,0,0,1,1.343.638l8.135,22.821a1.065,1.065,0,0,1-.631,1.358,1.046,1.046,0,0,1-1.343-.639L23.132,16.728A1.065,1.065,0,0,1,23.764,15.369Z" transform="translate(-0.438 -2.469)"/>
  <path id="Rounded_Rectangle_1_copy_2" data-name="Rounded Rectangle 1 copy 2" class="cls-2" d="M24.614,15.344A1.068,1.068,0,0,1,25,16.794L18.251,30.778a1.043,1.043,0,0,1-1.434.389,1.068,1.068,0,0,1-.384-1.45L23.18,15.733A1.043,1.043,0,0,1,24.614,15.344Z" transform="translate(-0.438 -2.469)"/>
  <path id="Rounded_Rectangle_1_copy" data-name="Rounded Rectangle 1 copy" class="cls-2" d="M37.756,19.984a1.047,1.047,0,0,0-1.284.751l-5.2,18.39a1.063,1.063,0,0,0,.741,1.3,1.047,1.047,0,0,0,1.284-.751l5.2-18.39A1.063,1.063,0,0,0,37.756,19.984Z" transform="translate(-0.438 -2.469)"/>
  <path id="Rounded_Rectangle_1_copy_5" data-name="Rounded Rectangle 1 copy 5" class="cls-2" d="M36.965,20.116a1.066,1.066,0,0,0-.383,1.449l3.185,4.593a1.044,1.044,0,0,0,1.433.39,1.066,1.066,0,0,0,.383-1.449L38.4,20.505A1.044,1.044,0,0,0,36.965,20.116Z" transform="translate(-0.438 -2.469)"/>
  <path id="ic_heart" class="cls-1" d="M49.871,4.605A16.261,16.261,0,0,0,29.392,8.518,16.275,16.275,0,0,0,8.9,4.605,16.481,16.481,0,0,0,1.258,24.095C4.064,36.789,29.392,52.8,29.392,52.8s25.314-16.007,28.123-28.7A16.478,16.478,0,0,0,49.871,4.605Z" transform="translate(-0.438 -2.469)"/>
  <path id="Rounded_Rectangle_1-2" data-name="Rounded Rectangle 1" class="cls-2" d="M23.764,15.369a1.046,1.046,0,0,1,1.343.638l8.135,22.821a1.065,1.065,0,0,1-.631,1.358,1.046,1.046,0,0,1-1.343-.639L23.132,16.728A1.065,1.065,0,0,1,23.764,15.369Z" transform="translate(-0.438 -2.469)"/>
  <path id="Rounded_Rectangle_1_copy_2-2" data-name="Rounded Rectangle 1 copy 2" class="cls-2" d="M24.614,15.344A1.068,1.068,0,0,1,25,16.794L18.251,30.778a1.043,1.043,0,0,1-1.434.389,1.068,1.068,0,0,1-.384-1.45L23.18,15.733A1.043,1.043,0,0,1,24.614,15.344Z" transform="translate(-0.438 -2.469)"/>
  <path id="Rounded_Rectangle_1_copy-2" data-name="Rounded Rectangle 1 copy" class="cls-2" d="M37.756,19.984a1.047,1.047,0,0,0-1.284.751l-5.2,18.39a1.063,1.063,0,0,0,.741,1.3,1.047,1.047,0,0,0,1.284-.751l5.2-18.39A1.063,1.063,0,0,0,37.756,19.984Z" transform="translate(-0.438 -2.469)"/>
  <path id="Rounded_Rectangle_1_copy_5-2" data-name="Rounded Rectangle 1 copy 5" class="cls-2" d="M36.965,20.116a1.066,1.066,0,0,0-.383,1.449l3.185,4.593a1.044,1.044,0,0,0,1.433.39,1.066,1.066,0,0,0,.383-1.449L38.4,20.505A1.044,1.044,0,0,0,36.965,20.116Z" transform="translate(-0.438 -2.469)"/>
  <g id="Group_1_copy" data-name="Group 1 copy">
    <path id="Shape_2_copy" data-name="Shape 2 copy" class="cls-3" d="M55.986,10.478l-21.1,21.266h0l-0.078.076-1.587,1.6a3.8,3.8,0,0,1-.382.334L29.4,37.129l-5.342-5.384,0,0L13.763,21.37a3.825,3.825,0,0,1,0-5.38,3.755,3.755,0,0,1,5.339,0L29.467,26.435l0.074-.072,0,0L50.647,5.1a3.755,3.755,0,0,1,5.339,0A3.825,3.825,0,0,1,55.986,10.478Z" transform="translate(-0.438 -2.469)"/>
    <path class="cls-1" d="M49.985,4.5a16.281,16.281,0,0,0-20.47,3.9A16.355,16.355,0,0,0,1.394,23.935c2.8,12.66,28.121,28.623,28.121,28.623s25.3-15.963,28.11-28.623a16.256,16.256,0,0,0,.808-5.061A16.436,16.436,0,0,0,49.985,4.5Z" transform="translate(-0.438 -2.469)"/>
    <path class="cls-2" d="M55.986,10.478l-21.1,21.266h0l-0.078.076-1.587,1.6a3.8,3.8,0,0,1-.382.334L29.4,37.129l-5.342-5.384,0,0L13.763,21.37a3.825,3.825,0,0,1,0-5.38,3.755,3.755,0,0,1,5.339,0L29.467,26.435l0.074-.072,0,0L50.647,5.1a3.755,3.755,0,0,1,5.339,0A3.825,3.825,0,0,1,55.986,10.478Z" transform="translate(-0.438 -2.469)"/>
  </g>
  <path class="cls-4" d="M280.152,57.22H31.019l0.008-.129c4.1-2.717,28.137-19.152,31.025-32.422a18.96,18.96,0,0,0,.909-5.8,19.2,19.2,0,0,0-.742-5.305H280.152a5.128,5.128,0,0,1,5.057,5.2V52.023A5.128,5.128,0,0,1,280.152,57.22Z" transform="translate(-0.438 -2.469)"/>
  <path id="Symptom_Tracker" data-name="Symptom Tracker" class="cls-2" d="M75.887,36.9c3.643,0,6.2-1.955,6.2-5.237V31.61c0-2.907-1.883-4.235-5.551-5.137-3.345-.8-4.138-1.4-4.138-2.756v-0.05c0-1.153,1.041-2.08,2.825-2.08a7.16,7.16,0,0,1,3.99,1.328,1.462,1.462,0,0,0,.793.226,1.425,1.425,0,0,0,1.437-1.428,1.4,1.4,0,0,0-.669-1.228,9.469,9.469,0,0,0-5.5-1.629c-3.445,0-5.923,2.08-5.923,5.087v0.05c0,3.233,2.082,4.335,5.774,5.237,3.222,0.752,3.915,1.428,3.915,2.681v0.05c0,1.3-1.19,2.205-3.073,2.205a7.472,7.472,0,0,1-4.857-1.8,1.4,1.4,0,0,0-.892-0.276,1.425,1.425,0,0,0-1.437,1.428,1.45,1.45,0,0,0,.595,1.178A10.721,10.721,0,0,0,75.887,36.9Zm10.457,3.834c2.106,0,3.3-1,4.411-3.709l4.783-11.6a2.749,2.749,0,0,0,.124-0.727,1.425,1.425,0,0,0-1.437-1.428,1.542,1.542,0,0,0-1.437,1.153l-3.271,8.8L86,24.419a1.507,1.507,0,0,0-1.462-1.153,1.448,1.448,0,0,0-1.487,1.478,2.066,2.066,0,0,0,.173.727l4.857,10.975-0.1.276a1.893,1.893,0,0,1-1.858,1.4,3.356,3.356,0,0,1-1.041-.175,1.516,1.516,0,0,0-.545-0.1A1.213,1.213,0,0,0,83.321,39.1a1.289,1.289,0,0,0,.942,1.253A5.245,5.245,0,0,0,86.344,40.732ZM97.52,35.269a1.5,1.5,0,1,0,3,0V29.18c0-2.03,1.14-3.283,2.8-3.283s2.652,1.153,2.652,3.208v6.164a1.5,1.5,0,1,0,3,0V29.18c0-2.13,1.165-3.283,2.8-3.283,1.685,0,2.651,1.128,2.651,3.233v6.139a1.489,1.489,0,0,0,1.512,1.5,1.469,1.469,0,0,0,1.487-1.5V28.2c0-3.233-1.735-5.062-4.585-5.062a5.249,5.249,0,0,0-4.411,2.33,4.147,4.147,0,0,0-3.915-2.33,4.681,4.681,0,0,0-3.99,2.28V24.795a1.51,1.51,0,0,0-1.511-1.529,1.49,1.49,0,0,0-1.487,1.529V35.269Zm22.549,4.009a1.5,1.5,0,1,0,3,0V34.592a5.328,5.328,0,0,0,4.46,2.33c3.1,0,6.072-2.481,6.072-6.866v-0.05c0-4.41-3-6.866-6.072-6.866a5.224,5.224,0,0,0-4.46,2.481V24.795a1.51,1.51,0,0,0-1.512-1.529,1.49,1.49,0,0,0-1.487,1.529V39.278Zm6.741-4.987a3.971,3.971,0,0,1-3.816-4.235v-0.05a3.971,3.971,0,0,1,3.816-4.235c2.032,0,3.742,1.679,3.742,4.235v0.05C130.552,32.663,128.867,34.292,126.81,34.292Zm13.282,2.581a5.9,5.9,0,0,0,2.056-.351,1.3,1.3,0,0,0,.793-1.178,1.27,1.27,0,0,0-1.264-1.253,6.992,6.992,0,0,1-.743.075,1.436,1.436,0,0,1-1.611-1.654v-6.49h2.354a1.3,1.3,0,1,0,0-2.606h-2.354V21.161a1.5,1.5,0,1,0-3,0v2.255h-0.5a1.3,1.3,0,0,0,0,2.606h0.5v6.966C136.325,35.9,137.886,36.873,140.092,36.873Zm10.655,0.075a6.878,6.878,0,0,0,7.013-6.891v-0.05a6.977,6.977,0,0,0-13.952.05v0.05A6.8,6.8,0,0,0,150.747,36.948Zm0.049-2.656a4.058,4.058,0,0,1-3.989-4.235v-0.05a3.952,3.952,0,0,1,3.94-4.21,4.069,4.069,0,0,1,4.014,4.26v0.05A3.95,3.95,0,0,1,150.8,34.292Zm9.02,0.977a1.5,1.5,0,1,0,3,0V29.18c0-2.03,1.139-3.283,2.8-3.283s2.651,1.153,2.651,3.208v6.164a1.5,1.5,0,1,0,3,0V29.18c0-2.13,1.164-3.283,2.8-3.283,1.685,0,2.652,1.128,2.652,3.233v6.139a1.489,1.489,0,0,0,1.511,1.5,1.468,1.468,0,0,0,1.487-1.5V28.2c0-3.233-1.735-5.062-4.584-5.062a5.246,5.246,0,0,0-4.411,2.33,4.147,4.147,0,0,0-3.916-2.33,4.678,4.678,0,0,0-3.989,2.28V24.795a1.511,1.511,0,0,0-1.512-1.529,1.49,1.49,0,0,0-1.487,1.529V35.269Zm33.6-.025a1.537,1.537,0,0,0,3.073,0V21.963h4.238a1.429,1.429,0,0,0,0-2.857H189.205a1.428,1.428,0,0,0,0,2.857h4.212V35.244Zm8.673,0.025a1.484,1.484,0,0,0,1.487,1.5,1.5,1.5,0,0,0,1.512-1.5V31.36c0-3.132,1.462-4.786,3.593-5.162a1.419,1.419,0,0,0,1.19-1.453,1.4,1.4,0,0,0-1.487-1.5c-1.314,0-2.6,1.253-3.3,2.907V24.795a1.51,1.51,0,0,0-1.512-1.529,1.49,1.49,0,0,0-1.487,1.529V35.269Zm12.391,1.654a5.294,5.294,0,0,0,4.262-1.929v0.5a1.361,1.361,0,0,0,1.462,1.278,1.436,1.436,0,0,0,1.462-1.453V28.8a5.525,5.525,0,0,0-1.413-4.084,5.82,5.82,0,0,0-4.336-1.479,11.107,11.107,0,0,0-4.213.777,1.323,1.323,0,0,0-.818,1.2,1.255,1.255,0,0,0,1.264,1.253,1.664,1.664,0,0,0,.471-0.075,7.692,7.692,0,0,1,2.9-.526c2.107,0,3.247,1,3.247,2.882V29.08a10.82,10.82,0,0,0-3.519-.551c-3.2,0-5.4,1.4-5.4,4.26v0.05C209.847,35.494,212.027,36.923,214.481,36.923Zm0.842-2.205c-1.437,0-2.552-.727-2.552-2v-0.05c0-1.378,1.14-2.205,3.072-2.205a8.229,8.229,0,0,1,2.974.526v0.9C218.817,33.565,217.306,34.718,215.323,34.718Zm14.992,2.23a6.369,6.369,0,0,0,4.758-1.879,1.189,1.189,0,0,0,.421-0.952,1.309,1.309,0,0,0-1.289-1.328,1.292,1.292,0,0,0-.817.326,4.343,4.343,0,0,1-2.925,1.178,3.985,3.985,0,0,1-3.915-4.235v-0.05a3.973,3.973,0,0,1,3.792-4.21,4.126,4.126,0,0,1,2.8,1.128,1.516,1.516,0,0,0,.892.3,1.372,1.372,0,0,0,1.388-1.378,1.445,1.445,0,0,0-.471-1.053,6.581,6.581,0,0,0-4.585-1.654,6.792,6.792,0,0,0-6.814,6.916v0.05A6.718,6.718,0,0,0,230.315,36.948Zm7.111-1.679a1.5,1.5,0,1,0,3,0V32.964l1.982-1.9,3.742,5.037a1.484,1.484,0,0,0,1.314.677,1.362,1.362,0,0,0,1.412-1.378,1.623,1.623,0,0,0-.4-1l-3.965-5.237,3.469-3.232a1.728,1.728,0,0,0,.669-1.278,1.325,1.325,0,0,0-1.313-1.378,1.756,1.756,0,0,0-1.289.652l-5.625,5.588V19.733a1.5,1.5,0,0,0-1.512-1.5,1.484,1.484,0,0,0-1.487,1.5V35.269ZM252.691,29.1c0.272-2.055,1.561-3.483,3.4-3.483,1.982,0,3.122,1.528,3.32,3.483h-6.715Zm8.45,6.089a1.331,1.331,0,0,0,.4-0.927,1.187,1.187,0,0,0-1.189-1.228,1.108,1.108,0,0,0-.768.276,4.673,4.673,0,0,1-3.1,1.153,3.667,3.667,0,0,1-3.767-3.358h8.2a1.41,1.41,0,0,0,1.412-1.453c0-3.057-2.056-6.515-6.22-6.515-3.741,0-6.393,3.107-6.393,6.891v0.05a6.566,6.566,0,0,0,6.716,6.866A6.676,6.676,0,0,0,261.141,35.194Zm3.27,0.075a1.484,1.484,0,0,0,1.487,1.5,1.5,1.5,0,0,0,1.512-1.5V31.36c0-3.132,1.462-4.786,3.593-5.162a1.418,1.418,0,0,0,1.189-1.453,1.4,1.4,0,0,0-1.486-1.5c-1.314,0-2.6,1.253-3.3,2.907V24.795a1.51,1.51,0,0,0-1.512-1.529,1.49,1.49,0,0,0-1.487,1.529V35.269Z" transform="translate(-0.438 -2.469)"/>
  <path id="By_TeleMedHome" data-name="By TeleMedHome" class="cls-2" d="M74.107,45.284a1.6,1.6,0,0,0-.675-1.353,2.946,2.946,0,0,0-1.805-.5q-0.381,0-1.013.05-1.068.087-2.3,0.087a5.851,5.851,0,0,0-.814.031,0.156,0.156,0,0,0-.144.162,0.155,0.155,0,0,0,.071.143,0.8,0.8,0,0,0,.316.056,0.854,0.854,0,0,1,.414.112,0.606,0.606,0,0,1,.215.329,4.928,4.928,0,0,1,.108,1.045q0.031,0.81.031,2.162l-0.049,2.9a1.434,1.434,0,0,1-.107.645,0.634,0.634,0,0,1-.282.282,1.982,1.982,0,0,1-.562.133,0.173,0.173,0,0,0-.19.161q0,0.18.239,0.18,0.117,0,.405-0.025,0.706-.056,1.124-0.056,0.313,0,.866.028,0.669,0.034.982,0.034a7.425,7.425,0,0,0,1.956-.2,2.248,2.248,0,0,0,1.136-.767,1.986,1.986,0,0,0,.463-1.285,1.816,1.816,0,0,0-.632-1.418,4.162,4.162,0,0,0-1.9-.835q2.149-.638,2.149-2.1h0Zm-3.887.037q0-.68.049-1.305a2.778,2.778,0,0,1,.866-0.173,1.162,1.162,0,0,1,.872.4,1.713,1.713,0,0,1,.375,1.209q0,1.838-2.112,1.837Q70.22,45.9,70.22,45.321h0Zm0.6,2.421a1.711,1.711,0,0,1,1.382.536,2.05,2.05,0,0,1,.454,1.373,1.867,1.867,0,0,1-.439,1.314,1.711,1.711,0,0,1-1.323.477,0.666,0.666,0,0,1-.583-0.167,4.74,4.74,0,0,1-.092-1.32q0-.874.049-2.182,0.35-.031.553-0.031h0Zm7.362,0.581a6.123,6.123,0,0,1-.327-1.034,0.41,0.41,0,0,1,.111-0.258,0.506,0.506,0,0,1,.308-0.171,0.28,0.28,0,0,0,.3-0.217q0-.168-0.246-0.168L78.06,46.5q-0.5.05-1.175,0.05a5.773,5.773,0,0,1-.664-0.031q-0.424-.044-0.5-0.044-0.314,0-.314.18a0.233,0.233,0,0,0,.241.174,0.758,0.758,0,0,1,.414.277,12.1,12.1,0,0,1,.826,1.7q0.647,1.479,1.03,2.408a4.8,4.8,0,0,1,.383,1.14,3.063,3.063,0,0,1-.483,1.283,1.336,1.336,0,0,1-.9.861,0.338,0.338,0,0,1-.246-0.335,0.721,0.721,0,0,0-1.256-.425,0.754,0.754,0,0,0-.212.506,0.867,0.867,0,0,0,.3.68,1.2,1.2,0,0,0,.826.264,1.808,1.808,0,0,0,1.109-.392,3.409,3.409,0,0,0,.946-1.311q0.427-.92,1.373-3.647a22.911,22.911,0,0,1,.955-2.5,1.114,1.114,0,0,1,.7-0.535,0.2,0.2,0,0,0,.192-0.152q0-.183-0.3-0.183-0.043,0-.338.037a5.777,5.777,0,0,1-.6.037,5.685,5.685,0,0,1-.64-0.031q-0.259-.031-0.357-0.031-0.252,0-.252.174,0,0.137.259,0.18a0.57,0.57,0,0,1,.579.6,6.042,6.042,0,0,1-.41,1.607l-0.5,1.408Q78.51,49.221,78.184,48.323Zm7.585-3.5q-0.077.761-.077,0.816a0.175,0.175,0,0,0,.209.186,0.31,0.31,0,0,0,.239-0.236,2.82,2.82,0,0,1,.682-0.972,1.794,1.794,0,0,1,.869-0.459,8.983,8.983,0,0,1,1.464-.084q0.16,1.658.16,4.3,0,1.67-.064,2.17a1.087,1.087,0,0,1-.341.73,1.262,1.262,0,0,1-.823.23,0.186,0.186,0,0,0-.233.18,0.152,0.152,0,0,0,.141.155q0.289,0.012.381,0.012l0.775-.031q0.32-.012,1.808-0.012l1.273,0.031L92.4,51.846a0.171,0.171,0,0,0,.209-0.174q0-.155-0.239-0.174a2.173,2.173,0,0,1-.9-0.18,0.71,0.71,0,0,1-.27-0.41,10.659,10.659,0,0,1-.135-1.636q-0.055-1.356-.055-2.816a23.768,23.768,0,0,1,.1-2.378,7.518,7.518,0,0,1,1.594.118,1.8,1.8,0,0,1,.848.478,2.927,2.927,0,0,1,.6.863,0.409,0.409,0,0,0,.294.3,0.2,0.2,0,0,0,.2-0.242l-0.092-.981q-0.068-.795-0.111-1.049-0.289-.006-0.412-0.006-0.32,0-.817.025-1.395.068-2.556,0.068-1.53,0-4.719-.087Q85.846,44.066,85.769,44.827Zm13.8,4.126a3.456,3.456,0,0,0,.756-0.044,0.252,0.252,0,0,0,.116-0.267,2.456,2.456,0,0,0-.6-1.478,2.065,2.065,0,0,0-1.741-.776,2.688,2.688,0,0,0-2.029.854,2.945,2.945,0,0,0-.814,2.114,2.607,2.607,0,0,0,.709,1.822,2.529,2.529,0,0,0,1.962.773,3.435,3.435,0,0,0,1.105-.18,2.377,2.377,0,0,0,.9-0.534,1.055,1.055,0,0,0,.368-0.49,0.147,0.147,0,0,0-.159-0.174,0.436,0.436,0,0,0-.209.13,2.179,2.179,0,0,1-1.461.652,1.335,1.335,0,0,1-1.151-.612,2.544,2.544,0,0,1-.427-1.493q0-.081.006-0.261Zm-1.547-2.2a0.84,0.84,0,0,1,.688.391,1.477,1.477,0,0,1,.289.9,0.444,0.444,0,0,1-.157.4,2.09,2.09,0,0,1-.85.1q-0.141,0-1.05-.012,0.135-1.782,1.081-1.782h0Zm3.524-3.1a1.538,1.538,0,0,0-.377.059,0.126,0.126,0,0,0-.077.127c0,0.1.112,0.166,0.338,0.2a0.829,0.829,0,0,1,.672.351,5.213,5.213,0,0,1,.113,1.463L102.2,47.788l0.025,2.442a6.891,6.891,0,0,1-.034.886,0.436,0.436,0,0,1-.19.3,1.008,1.008,0,0,1-.5.124c-0.209.012-.313,0.072-0.313,0.18s0.092,0.168.276,0.168a2,2,0,0,0,.221-0.014q0.436-.048,1.345-0.048,0.559,0,1.154.05c0.095,0.008.166,0.012,0.215,0.012q0.264,0,.264-0.193,0-.155-0.429-0.174a0.539,0.539,0,0,1-.492-0.248,13.812,13.812,0,0,1-.129-2.726L103.6,43.334a12.149,12.149,0,0,1-2.051.317h0Zm8.35,5.3a3.459,3.459,0,0,0,.756-0.044,0.252,0.252,0,0,0,.116-0.267,2.458,2.458,0,0,0-.6-1.478,2.066,2.066,0,0,0-1.741-.776,2.686,2.686,0,0,0-2.029.854,2.944,2.944,0,0,0-.814,2.114,2.606,2.606,0,0,0,.709,1.822,2.53,2.53,0,0,0,1.962.773,3.432,3.432,0,0,0,1.105-.18,2.383,2.383,0,0,0,.9-0.534,1.055,1.055,0,0,0,.368-0.49,0.147,0.147,0,0,0-.159-0.174,0.435,0.435,0,0,0-.209.13,2.179,2.179,0,0,1-1.462.652,1.335,1.335,0,0,1-1.151-.612,2.548,2.548,0,0,1-.427-1.493c0-.054,0-0.141.007-0.261Zm-1.547-2.2a0.841,0.841,0,0,1,.688.391,1.479,1.479,0,0,1,.288.9,0.445,0.445,0,0,1-.156.4,2.094,2.094,0,0,1-.851.1q-0.141,0-1.05-.012,0.135-1.782,1.081-1.782h0Zm3.616-3.153c-0.057,0-.1-0.007-0.135-0.007a0.178,0.178,0,0,0-.221.174,0.21,0.21,0,0,0,.2.2,1.674,1.674,0,0,1,.78.317,0.976,0.976,0,0,1,.3.6,12.934,12.934,0,0,1,.062,1.6l-0.031,3.548a2.2,2.2,0,0,1-.181,1.038,1.058,1.058,0,0,1-.771.429,1.114,1.114,0,0,0-.279.084,0.133,0.133,0,0,0-.052.121,0.176,0.176,0,0,0,.215.18,1.007,1.007,0,0,0,.129-0.012,10.391,10.391,0,0,1,1.32-.062q0.32,0,1.056.055,0.08,0.007.147,0.007a0.157,0.157,0,0,0,.191-0.161q0-.149-0.234-0.174a0.929,0.929,0,0,1-.859-0.426,5.817,5.817,0,0,1-.154-1.743q0-2.616.031-4.158,2.754,5.358,3.2,6.314a0.486,0.486,0,0,0,.265.329,0.342,0.342,0,0,0,.209-0.267l0.619-1.683q0.4-1.086,2.066-5.01-0.006.323-.006,2.455l-0.025,2.778a3.6,3.6,0,0,1-.073.839,0.679,0.679,0,0,1-.217.392,1.133,1.133,0,0,1-.467.162c-0.211.033-.317,0.1-0.317,0.193a0.219,0.219,0,0,0,.116.174q1.374-.062,2.164-0.062l1.723,0.012a0.18,0.18,0,0,0,.111-0.155c0-.116-0.089-0.176-0.264-0.18a0.909,0.909,0,0,1-.789-0.391,2.529,2.529,0,0,1-.243-1.3l0.006-3.042a7.426,7.426,0,0,1,.218-2.344,0.9,0.9,0,0,1,.918-0.481,0.165,0.165,0,0,0,.2-0.174,0.2,0.2,0,0,0-.252-0.2c-0.037,0-.095,0-0.172.006q-1.248.075-2.722,0.075-0.79,2.123-2.328,5.607-0.056-.13-0.48-0.882-0.528-.95-0.95-1.81t-0.851-1.7q-0.43-.835-0.591-1.22-1.958,0-2.584-.055h0Zm16.247,5.351a3.454,3.454,0,0,0,.755-0.044,0.252,0.252,0,0,0,.116-0.267,2.458,2.458,0,0,0-.6-1.478,2.066,2.066,0,0,0-1.741-.776,2.688,2.688,0,0,0-2.029.854,2.944,2.944,0,0,0-.814,2.114,2.61,2.61,0,0,0,.709,1.822,2.53,2.53,0,0,0,1.962.773,3.432,3.432,0,0,0,1.105-.18,2.383,2.383,0,0,0,.9-0.534,1.048,1.048,0,0,0,.368-0.49,0.147,0.147,0,0,0-.159-0.174,0.435,0.435,0,0,0-.209.13,2.179,2.179,0,0,1-1.461.652,1.337,1.337,0,0,1-1.152-.612,2.547,2.547,0,0,1-.426-1.493q0-.081.006-0.261Zm-1.548-2.2a0.841,0.841,0,0,1,.688.391,1.479,1.479,0,0,1,.288.9,0.445,0.445,0,0,1-.156.4,2.088,2.088,0,0,1-.85.1q-0.142,0-1.05-.012,0.135-1.782,1.08-1.782h0Zm6.837-.214a1.69,1.69,0,0,0-.691-0.14,2.484,2.484,0,0,0-1.805.822,2.866,2.866,0,0,0-.811,2.1,2.634,2.634,0,0,0,.71,1.9,2.218,2.218,0,0,0,1.648.738,1.641,1.641,0,0,0,.884-0.236,1.884,1.884,0,0,0,.645-0.714v0.851h1.989q0.24,0,.24-0.161a0.2,0.2,0,0,0-.227-0.174,0.668,0.668,0,0,1-.5-0.217,1.827,1.827,0,0,1-.107-0.8l0.031-2.738,0.012-4.408H133.9a2.659,2.659,0,0,0-.531.028,0.125,0.125,0,0,0-.083.134q0,0.137.24,0.174a0.763,0.763,0,0,1,.435.165,1.723,1.723,0,0,1,.1.7q0.018,0.6.018,2.393A1.794,1.794,0,0,0,133.5,46.54Zm-1.372.825a0.89,0.89,0,0,1,1.664-.034,3.924,3.924,0,0,1,.276,1.674,3.847,3.847,0,0,1-.329,1.894,0.937,0.937,0,0,1-.789.524,0.907,0.907,0,0,1-.789-0.549,3.682,3.682,0,0,1-.31-1.733A4.37,4.37,0,0,1,132.128,47.365Zm9.541,0.091a16.367,16.367,0,0,1-1.682-.081l-0.013-1.767a5.581,5.581,0,0,1,.074-1.132,0.629,0.629,0,0,1,.227-0.392,1.107,1.107,0,0,1,.559-0.1c0.164,0,.245-0.062.245-0.186s-0.1-.193-0.3-0.193l-1.734.062c-0.3,0-.56-0.008-0.793-0.025q-0.629-.05-0.892-0.05a0.176,0.176,0,0,0-.209.186,0.152,0.152,0,0,0,.061.146,1.179,1.179,0,0,0,.307.071,0.821,0.821,0,0,1,.473.18,0.973,0.973,0,0,1,.218.555,9.658,9.658,0,0,1,.064,1.331q0,0.186-.015,2.215a20.723,20.723,0,0,1-.1,2.46,1.071,1.071,0,0,1-.252.586,1.155,1.155,0,0,1-.641.2q-0.252.031-.252,0.18c0,0.124.106,0.186,0.32,0.186,0.086,0,.276-0.009.571-0.028q0.628-.034,1-0.034,0.8,0,1.531.068c0.119,0.012.209,0.019,0.271,0.019q0.252,0,.252-0.174t-0.24-.18a0.731,0.731,0,0,1-.654-0.3,2.239,2.239,0,0,1-.156-1q0-1.012.067-2.26a14.244,14.244,0,0,1,1.505-.062q0.828,0,1.9.031,0.012,0.348.012,0.522a17.1,17.1,0,0,1-.091,2.229,1.145,1.145,0,0,1-.294.714,1.055,1.055,0,0,1-.641.155,0.153,0.153,0,0,0-.183.161,0.179,0.179,0,0,0,.221.18q0.244,0,1.079-.056,0.435-.025.588-0.025l1.7,0.062c0.164,0.012.27,0.019,0.319,0.019,0.147,0,.221-0.054.221-0.161,0-.124-0.1-0.186-0.289-0.186a0.917,0.917,0,0,1-.66-0.193,1.042,1.042,0,0,1-.221-0.684q-0.027-.491-0.027-2.678,0-.528.043-1.936a10.839,10.839,0,0,1,.113-1.641,0.586,0.586,0,0,1,.252-0.345,1.261,1.261,0,0,1,.611-0.118q0.264-.006.264-0.2c0-.116-0.078-0.174-0.233-0.174-0.041,0-.111,0-0.209.012q-0.785.05-1.827,0.05-0.085,0-.827-0.034-0.577-.028-0.859-0.028a0.2,0.2,0,0,0-.245.192q0,0.18.418,0.2a0.7,0.7,0,0,1,.669.353,2.85,2.85,0,0,1,.16,1.128l-0.056,1.884q-0.828.081-1.725,0.081h0Zm10.637-.338a2.909,2.909,0,0,0-2.047-.736,2.987,2.987,0,0,0-2.085.779,2.628,2.628,0,0,0-.857,2.04,2.57,2.57,0,0,0,.811,1.987,2.846,2.846,0,0,0,2,.745,2.816,2.816,0,0,0,2.136-.888,2.868,2.868,0,0,0,.841-2.03A2.459,2.459,0,0,0,152.306,47.118Zm-1.188,3.845a0.94,0.94,0,0,1-.878.578,1.044,1.044,0,0,1-.936-0.724,4.374,4.374,0,0,1-.341-1.856,3.528,3.528,0,0,1,.3-1.613,0.932,0.932,0,0,1,.853-0.575,1.072,1.072,0,0,1,.961.824,4.86,4.86,0,0,1,.335,1.843A3.358,3.358,0,0,1,151.118,50.963Zm5.317-4a1.7,1.7,0,0,0-.074-0.6q-0.466,0-1.1.065t-0.964.084c-0.168.008-.251,0.066-0.251,0.174s0.083,0.164.251,0.168a0.743,0.743,0,0,1,.482.155,0.619,0.619,0,0,1,.2.429q0.027,0.28.027,1.386,0,1.418-.042,1.931a1.533,1.533,0,0,1-.129.625,0.648,0.648,0,0,1-.455.13,0.191,0.191,0,0,0-.227.18,0.17,0.17,0,0,0,.2.18c0.049,0,.122,0,0.221-0.014a8.846,8.846,0,0,1,1.062-.048,9.783,9.783,0,0,1,1.093.041,1.216,1.216,0,0,0,.172.021,0.2,0.2,0,0,0,.251-0.2c0-.1-0.077-0.153-0.233-0.161a0.482,0.482,0,0,1-.427-0.221,3.071,3.071,0,0,1-.113-1.1,6.192,6.192,0,0,1,.362-2.593,1.1,1.1,0,0,1,.989-0.671,0.541,0.541,0,0,1,.522.345,3.385,3.385,0,0,1,.159,1.259,18.686,18.686,0,0,1-.092,2.59,0.462,0.462,0,0,1-.442.395q-0.264.019-.264,0.18,0,0.18.27,0.18c0.049,0,.121,0,0.215-0.014q0.546-.048.946-0.048,0.232,0,.792.035c0.27,0.018.427,0.028,0.472,0.028,0.2,0,.3-0.064.3-0.193,0-.091-0.078-0.145-0.233-0.161a0.688,0.688,0,0,1-.5-0.205,2.211,2.211,0,0,1-.11-0.927,15.209,15.209,0,0,1,.19-2.767,2.674,2.674,0,0,1,.562-0.612,0.906,0.906,0,0,1,.537-0.2,0.637,0.637,0,0,1,.491.215,1.12,1.12,0,0,1,.252.619,13.112,13.112,0,0,1,.055,1.492q0,1.188-.043,1.688a1.233,1.233,0,0,1-.122.575,0.951,0.951,0,0,1-.43.124,0.186,0.186,0,0,0-.2.18c0,0.116.1,0.174,0.307,0.174q0.042,0,.33-0.021c0.311-.023.576-0.035,0.8-0.035q0.606,0,1.121.049,0.079,0.007.123,0.007c0.167,0,.251-0.064.251-0.193a0.2,0.2,0,0,0-.213-0.168,0.671,0.671,0,0,1-.463-0.19,3.116,3.116,0,0,1-.085-1.023l0.03-2.1a2.117,2.117,0,0,0-.386-1.38,1.535,1.535,0,0,0-1.233-.46,2.453,2.453,0,0,0-.957.2,3.3,3.3,0,0,0-.908.587,2.151,2.151,0,0,0-.8-0.639,2.023,2.023,0,0,0-.7-0.137,1.95,1.95,0,0,0-.919.239,3.379,3.379,0,0,0-.894.723q-0.006-.261-0.006-0.366h0Zm12.851,1.987a3.447,3.447,0,0,0,.755-0.044,0.251,0.251,0,0,0,.117-0.267,2.46,2.46,0,0,0-.6-1.478,2.065,2.065,0,0,0-1.741-.776,2.688,2.688,0,0,0-2.029.854,2.947,2.947,0,0,0-.813,2.114,2.606,2.606,0,0,0,.709,1.822,2.528,2.528,0,0,0,1.961.773,3.438,3.438,0,0,0,1.106-.18,2.371,2.371,0,0,0,.9-0.534,1.053,1.053,0,0,0,.369-0.49,0.148,0.148,0,0,0-.16-0.174,0.44,0.44,0,0,0-.209.13,2.179,2.179,0,0,1-1.461.652,1.334,1.334,0,0,1-1.151-.612,2.541,2.541,0,0,1-.427-1.493q0-.081.006-0.261Zm-1.547-2.2a0.838,0.838,0,0,1,.687.391,1.473,1.473,0,0,1,.289.9,0.443,0.443,0,0,1-.157.4,2.088,2.088,0,0,1-.85.1q-0.141,0-1.05-.012,0.135-1.782,1.081-1.782h0Z" transform="translate(-0.438 -2.469)"/>
</svg>
